<?xml version="1.0" encoding="iso-8859-1"?>
<!-- Uploaded to: SVG Repo, www.svgrepo.com, Generator: SVG Repo Mixer Tools -->
<!DOCTYPE svg PUBLIC "-//W3C//DTD SVG 1.1//EN" "http://www.w3.org/Graphics/SVG/1.1/DTD/svg11.dtd">
<svg fill="#000000" height="800px" width="800px" version="1.1" id="Capa_1" xmlns="http://www.w3.org/2000/svg" xmlns:xlink="http://www.w3.org/1999/xlink" 
	 viewBox="0 0 492.054 492.054" xml:space="preserve">
<g>
	<path d="M454.719,290.308l36.701-100.679c1.173-3.22,0.702-6.81-1.263-9.617c-1.965-2.807-5.176-4.48-8.603-4.48l-72.967-0.001
		v-59.169c0-16.207-13.185-29.392-29.391-29.392H112.836c-16.207,0-29.392,13.184-29.392,29.391v59.17L10.5,175.532
		c-3.427,0-6.638,1.672-8.603,4.48c-1.965,2.808-2.436,6.396-1.263,9.616l36.7,100.68L0.636,390.988
		c-1.174,3.219-0.702,6.809,1.263,9.616c1.965,2.808,5.176,4.479,8.602,4.479H135.09c5.799,0,10.5-4.701,10.5-10.5
		c0-2.112-0.629-4.074-1.702-5.721l0.005-0.004l-21.936-33.733h248.141l-21.935,33.733l0.005,0.004
		c-1.073,1.647-1.702,3.608-1.702,5.721c0,5.799,4.701,10.5,10.5,10.5h124.589c3.427,0,6.638-1.672,8.602-4.479
		c1.965-2.808,2.437-6.396,1.263-9.616L454.719,290.308z M58.376,293.903c0.847-2.322,0.847-4.869,0-7.191l-32.873-90.18
		l57.941-0.001v129.204c0,6.095,1.912,11.73,5.055,16.461c6.911,10.405,27.238,41.888,27.238,41.888H25.504L58.376,293.903z
		 M105.984,330.563c-0.039-0.059-0.084-0.112-0.123-0.171c-0.895-1.333-1.417-2.935-1.417-4.657V116.361
		c0-4.627,3.765-8.391,8.392-8.391h266.361c4.627,0,8.391,3.765,8.391,8.392v209.373c0,4.627-3.764,8.391-8.391,8.391H112.836
		c-2.828,0-5.329-1.41-6.85-3.559L105.984,330.563z M403.877,341.665c2.885-4.651,4.711-10.062,4.711-15.93V196.531l57.964,0.001
		l-32.874,90.18c-0.847,2.322-0.847,4.869,0,7.192l32.873,90.18h-90.233C376.317,384.084,397.019,352.171,403.877,341.665z"/>
	<path d="M198.288,244.052l-8.724,46.036c-0.757,3.991,0.857,8.062,4.145,10.449c3.288,2.389,7.656,2.667,11.219,0.713
		l41.089-22.522l41.088,22.522c1.578,0.865,3.315,1.293,5.046,1.293c2.176,0,4.342-0.676,6.173-2.006
		c3.287-2.388,4.901-6.457,4.145-10.449l-8.723-46.036l34.116-32.118c2.958-2.784,4.044-7.025,2.789-10.89
		c-1.256-3.864-4.628-6.656-8.657-7.171l-46.479-5.929l-20.002-42.372c-1.734-3.674-5.433-6.018-9.495-6.018
		s-7.761,2.344-9.495,6.018l-20.003,42.372l-46.479,5.929c-4.029,0.515-7.401,3.307-8.657,7.171
		c-1.255,3.864-0.169,8.105,2.789,10.89L198.288,244.052z M224.886,208.047c3.557-0.454,6.636-2.691,8.166-5.934l12.965-27.463
		l12.964,27.463c1.53,3.242,4.609,5.479,8.166,5.934l30.125,3.843l-22.111,20.816c-2.61,2.458-3.787,6.077-3.119,9.6l5.653,29.839
		l-26.631-14.598c-3.145-1.724-6.951-1.724-10.094,0l-26.632,14.598l5.654-29.839c0.668-3.522-0.509-7.142-3.119-9.6l-22.111-20.816
		L224.886,208.047z"/>
</g>
</svg>