<svg xmlns="http://www.w3.org/2000/svg" width="25" height="21" viewBox="0 0 25 21">
  <path fill-rule="evenodd" d="M16.0002,13.5 C16.0002,13.776 15.7762,14 15.5002,14 L9.5002,14 C9.2242,14 9.0002,13.776 9.0002,13.5 C9.0002,13.224 9.2242,13 9.5002,13 L15.5002,13 C15.7762,13 16.0002,13.224 16.0002,13.5 L16.0002,13.5 Z M16.0002,11.5 C16.0002,11.776 15.7762,12 15.5002,12 L9.5002,12 C9.2242,12 9.0002,11.776 9.0002,11.5 C9.0002,11.224 9.2242,11 9.5002,11 L15.5002,11 C15.7762,11 16.0002,11.224 16.0002,11.5 L16.0002,11.5 Z M20.0002,13 C19.4492,13 19.0002,12.552 19.0002,12 C19.0002,11.448 19.4492,11 20.0002,11 C20.5512,11 21.0002,11.448 21.0002,12 C21.0002,12.552 20.5512,13 20.0002,13 L20.0002,13 Z M20.0002,10 C18.8972,10 18.0002,10.897 18.0002,12 C18.0002,13.103 18.8972,14 20.0002,14 C21.1032,14 22.0002,13.103 22.0002,12 C22.0002,10.897 21.1032,10 20.0002,10 L20.0002,10 Z M5.0002,13 C4.4492,13 4.0002,12.552 4.0002,12 C4.0002,11.448 4.4492,11 5.0002,11 C5.5512,11 6.0002,11.448 6.0002,12 C6.0002,12.552 5.5512,13 5.0002,13 L5.0002,13 Z M5.0002,10 C3.8972,10 3.0002,10.897 3.0002,12 C3.0002,13.103 3.8972,14 5.0002,14 C6.1032,14 7.0002,13.103 7.0002,12 C7.0002,10.897 6.1032,10 5.0002,10 L5.0002,10 Z M24.0002,15.5 C24.0002,15.775 23.7762,16 23.5002,16 L22.5002,16 L19.5002,16 L5.5002,16 L2.5002,16 L1.5002,16 C1.2242,16 1.0002,15.775 1.0002,15.5 L1.0002,10.5 C1.0002,9.339 1.7992,8.369 2.8742,8.089 C3.0842,8.032 3.2952,8 3.5002,8 L21.5002,8 C21.7052,8 21.9162,8.032 22.1262,8.089 C23.2012,8.369 24.0002,9.339 24.0002,10.5 L24.0002,15.5 Z M22.0002,19 C22.0002,19.552 21.5512,20 21.0002,20 C20.4492,20 20.0002,19.552 20.0002,19 L20.0002,17 L22.0002,17 L22.0002,19 Z M5.0002,19 C5.0002,19.552 4.5512,20 4.0002,20 C3.4492,20 3.0002,19.552 3.0002,19 L3.0002,17 L5.0002,17 L5.0002,19 Z M3.3882,7.002 L4.7962,1.378 C4.8502,1.155 5.0492,1 5.2802,1 L19.7202,1 C19.9512,1 20.1502,1.155 20.2052,1.381 L21.6122,7.002 C21.5752,7.001 21.5382,7 21.5002,7 L3.5002,7 C3.4622,7 3.4252,7.001 3.3882,7.002 L3.3882,7.002 Z M22.6992,7.225 L21.1762,1.142 C21.0122,0.47 20.4132,0 19.7202,0 L5.2802,0 C4.5872,0 3.9882,0.47 3.8252,1.139 L2.3012,7.225 C0.9632,7.717 0.0002,8.993 0.0002,10.5 L0.0002,15.5 C0.0002,16.327 0.6732,17 1.5002,17 L2.0002,17 L2.0002,19 C2.0002,20.103 2.8972,21 4.0002,21 C5.1032,21 6.0002,20.103 6.0002,19 L6.0002,17 L19.0002,17 L19.0002,19 C19.0002,20.103 19.8972,21 21.0002,21 C22.1032,21 23.0002,20.103 23.0002,19 L23.0002,17 L23.5002,17 C24.3272,17 25.0002,16.327 25.0002,15.5 L25.0002,10.5 C25.0002,8.993 24.0372,7.717 22.6992,7.225 L22.6992,7.225 Z"/>
</svg>
