<?xml version="1.0" encoding="UTF-8" standalone="no"?>
<svg
   xmlns:dc="http://purl.org/dc/elements/1.1/"
   xmlns:cc="http://creativecommons.org/ns#"
   xmlns:rdf="http://www.w3.org/1999/02/22-rdf-syntax-ns#"
   xmlns:svg="http://www.w3.org/2000/svg"
   xmlns="http://www.w3.org/2000/svg"
   viewBox="0 0 1707.6583 211.52353"
   height="211.52353"
   width="1707.6583"
   xml:space="preserve"
   id="svg2"
   version="1.1"><metadata
     id="metadata8"><rdf:RDF><cc:Work
         rdf:about=""><dc:format>image/svg+xml</dc:format><dc:type
           rdf:resource="http://purl.org/dc/dcmitype/StillImage" /></cc:Work></rdf:RDF></metadata><defs
     id="defs6"><linearGradient
       id="linearGradient18"
       spreadMethod="pad"
       gradientUnits="userSpaceOnUse"
       y2="171.78496"
       x2="641.68738"
       y1="119.19742"
       x1="641.68738"><stop
         id="stop14"
         offset="0"
         style="stop-opacity:1;stop-color:#74e3fd" /><stop
         id="stop16"
         offset="1"
         style="stop-opacity:1;stop-color:#084680" /></linearGradient><linearGradient
       id="linearGradient26"
       spreadMethod="pad"
       gradientUnits="userSpaceOnUse"
       y2="93.33503"
       x2="111.23841"
       y1="70.771027"
       x1="111.23841"><stop
         id="stop22"
         offset="0"
         style="stop-opacity:1;stop-color:#74e3fd" /><stop
         id="stop24"
         offset="1"
         style="stop-opacity:1;stop-color:#084680" /></linearGradient><linearGradient
       id="linearGradient34"
       spreadMethod="pad"
       gradientUnits="userSpaceOnUse"
       y2="52.196163"
       x2="140.70805"
       y1="37.898182"
       x1="140.70805"><stop
         id="stop30"
         offset="0"
         style="stop-opacity:1;stop-color:#74e3fd" /><stop
         id="stop32"
         offset="1"
         style="stop-opacity:1;stop-color:#084680" /></linearGradient><linearGradient
       id="linearGradient42"
       spreadMethod="pad"
       gradientUnits="userSpaceOnUse"
       y2="93.33503"
       x2="1170.0481"
       y1="70.771027"
       x1="1170.0481"><stop
         id="stop38"
         offset="0"
         style="stop-opacity:1;stop-color:#74e3fd" /><stop
         id="stop40"
         offset="1"
         style="stop-opacity:1;stop-color:#084680" /></linearGradient><linearGradient
       id="linearGradient50"
       spreadMethod="pad"
       gradientUnits="userSpaceOnUse"
       y2="52.196163"
       x2="1140.5785"
       y1="37.898182"
       x1="1140.5785"><stop
         id="stop46"
         offset="0"
         style="stop-opacity:1;stop-color:#74e3fd" /><stop
         id="stop48"
         offset="1"
         style="stop-opacity:1;stop-color:#084680" /></linearGradient><linearGradient
       id="linearGradient58"
       spreadMethod="pad"
       gradientUnits="userSpaceOnUse"
       y2="126.91197"
       x2="642.68738"
       y1="55.110165"
       x1="641.68738"><stop
         id="stop54"
         offset="0"
         style="stop-opacity:1;stop-color:#95e4fa" /><stop
         id="stop56"
         offset="1"
         style="stop-opacity:1;stop-color:#ffffff" /></linearGradient><linearGradient
       id="linearGradient66"
       spreadMethod="pad"
       gradientUnits="userSpaceOnUse"
       y2="126.91197"
       x2="642.68738"
       y1="55.110165"
       x1="641.68738"><stop
         id="stop62"
         offset="0"
         style="stop-opacity:1;stop-color:#95e4fa" /><stop
         id="stop64"
         offset="1"
         style="stop-opacity:1;stop-color:#ffffff" /></linearGradient><linearGradient
       id="linearGradient74"
       spreadMethod="pad"
       gradientUnits="userSpaceOnUse"
       y2="126.91197"
       x2="642.68738"
       y1="55.110165"
       x1="641.68738"><stop
         id="stop70"
         offset="0"
         style="stop-opacity:1;stop-color:#95e4fa" /><stop
         id="stop72"
         offset="1"
         style="stop-opacity:1;stop-color:#ffffff" /></linearGradient><linearGradient
       id="linearGradient82"
       spreadMethod="pad"
       gradientUnits="userSpaceOnUse"
       y2="126.91197"
       x2="642.68738"
       y1="55.110165"
       x1="641.68738"><stop
         id="stop78"
         offset="0"
         style="stop-opacity:1;stop-color:#95e4fa" /><stop
         id="stop80"
         offset="1"
         style="stop-opacity:1;stop-color:#ffffff" /></linearGradient><linearGradient
       id="linearGradient90"
       spreadMethod="pad"
       gradientUnits="userSpaceOnUse"
       y2="126.91197"
       x2="642.68738"
       y1="55.110165"
       x1="641.68738"><stop
         id="stop86"
         offset="0"
         style="stop-opacity:1;stop-color:#95e4fa" /><stop
         id="stop88"
         offset="1"
         style="stop-opacity:1;stop-color:#ffffff" /></linearGradient><linearGradient
       id="linearGradient98"
       spreadMethod="pad"
       gradientUnits="userSpaceOnUse"
       y2="126.91197"
       x2="642.68738"
       y1="55.110165"
       x1="641.68738"><stop
         id="stop94"
         offset="0"
         style="stop-opacity:1;stop-color:#95e4fa" /><stop
         id="stop96"
         offset="1"
         style="stop-opacity:1;stop-color:#ffffff" /></linearGradient><linearGradient
       id="linearGradient106"
       spreadMethod="pad"
       gradientUnits="userSpaceOnUse"
       y2="126.91197"
       x2="642.68738"
       y1="55.110165"
       x1="641.68738"><stop
         id="stop102"
         offset="0"
         style="stop-opacity:1;stop-color:#95e4fa" /><stop
         id="stop104"
         offset="1"
         style="stop-opacity:1;stop-color:#ffffff" /></linearGradient><linearGradient
       id="linearGradient114"
       spreadMethod="pad"
       gradientUnits="userSpaceOnUse"
       y2="126.91197"
       x2="642.68738"
       y1="55.110165"
       x1="641.68738"><stop
         id="stop110"
         offset="0"
         style="stop-opacity:1;stop-color:#95e4fa" /><stop
         id="stop112"
         offset="1"
         style="stop-opacity:1;stop-color:#ffffff" /></linearGradient><linearGradient
       id="linearGradient122"
       spreadMethod="pad"
       gradientUnits="userSpaceOnUse"
       y2="126.91197"
       x2="642.68738"
       y1="55.110165"
       x1="641.68738"><stop
         id="stop118"
         offset="0"
         style="stop-opacity:1;stop-color:#95e4fa" /><stop
         id="stop120"
         offset="1"
         style="stop-opacity:1;stop-color:#ffffff" /></linearGradient><linearGradient
       id="linearGradient130"
       spreadMethod="pad"
       gradientUnits="userSpaceOnUse"
       y2="126.91197"
       x2="642.68738"
       y1="55.110165"
       x1="641.68738"><stop
         id="stop126"
         offset="0"
         style="stop-opacity:1;stop-color:#95e4fa" /><stop
         id="stop128"
         offset="1"
         style="stop-opacity:1;stop-color:#ffffff" /></linearGradient><linearGradient
       id="linearGradient138"
       spreadMethod="pad"
       gradientUnits="userSpaceOnUse"
       y2="126.91197"
       x2="642.68738"
       y1="55.110165"
       x1="641.68738"><stop
         id="stop134"
         offset="0"
         style="stop-opacity:1;stop-color:#95e4fa" /><stop
         id="stop136"
         offset="1"
         style="stop-opacity:1;stop-color:#ffffff" /></linearGradient><linearGradient
       id="linearGradient146"
       spreadMethod="pad"
       gradientUnits="userSpaceOnUse"
       y2="126.91197"
       x2="642.68738"
       y1="55.110165"
       x1="641.68738"><stop
         id="stop142"
         offset="0"
         style="stop-opacity:1;stop-color:#95e4fa" /><stop
         id="stop144"
         offset="1"
         style="stop-opacity:1;stop-color:#ffffff" /></linearGradient><linearGradient
       id="linearGradient154"
       spreadMethod="pad"
       gradientUnits="userSpaceOnUse"
       y2="126.91197"
       x2="642.68738"
       y1="55.110165"
       x1="641.68738"><stop
         id="stop150"
         offset="0"
         style="stop-opacity:1;stop-color:#95e4fa" /><stop
         id="stop152"
         offset="1"
         style="stop-opacity:1;stop-color:#ffffff" /></linearGradient><linearGradient
       id="linearGradient162"
       spreadMethod="pad"
       gradientUnits="userSpaceOnUse"
       y2="126.91197"
       x2="642.68738"
       y1="55.110165"
       x1="641.68738"><stop
         id="stop158"
         offset="0"
         style="stop-opacity:1;stop-color:#95e4fa" /><stop
         id="stop160"
         offset="1"
         style="stop-opacity:1;stop-color:#ffffff" /></linearGradient><linearGradient
       id="linearGradient170"
       spreadMethod="pad"
       gradientUnits="userSpaceOnUse"
       y2="126.91197"
       x2="642.68738"
       y1="55.110165"
       x1="641.68738"><stop
         id="stop166"
         offset="0"
         style="stop-opacity:1;stop-color:#95e4fa" /><stop
         id="stop168"
         offset="1"
         style="stop-opacity:1;stop-color:#ffffff" /></linearGradient><linearGradient
       id="linearGradient178"
       spreadMethod="pad"
       gradientUnits="userSpaceOnUse"
       y2="126.91197"
       x2="642.68738"
       y1="55.110165"
       x1="641.68738"><stop
         id="stop174"
         offset="0"
         style="stop-opacity:1;stop-color:#95e4fa" /><stop
         id="stop176"
         offset="1"
         style="stop-opacity:1;stop-color:#ffffff" /></linearGradient><linearGradient
       id="linearGradient188"
       spreadMethod="pad"
       gradientUnits="userSpaceOnUse"
       y2="140.86908"
       x2="640.65698"
       y1="1.441097"
       x1="640.65698"><stop
         id="stop184"
         offset="0"
         style="stop-opacity:1;stop-color:#74e3fd" /><stop
         id="stop186"
         offset="1"
         style="stop-opacity:1;stop-color:#084680" /></linearGradient></defs><g
     transform="matrix(1.3333333,0,0,-1.3333333,0,211.52353)"
     id="g10"><path
       id="path12"
       style="fill:#74e3fd;fill-opacity:1;fill-rule:nonzero;stroke:none"
       d="m 158.28041,63.604365 5.8803,-6.098094 -163.709236,2.111933 z" /><path
       id="path20"
       style="fill:url(#linearGradient18);fill-opacity:1;fill-rule:evenodd;stroke:none"
       d="m 192.49833,145.10081 h 898.37807 13.973 c 0,0 0.8014,-0.008 0.8014,-0.008 l 21.1917,-26.43855 114.4703,0.0303 6.3189,8.82122 -109.8972,-0.0255 -24.0753,31.15784 -8.7883,0.005 h -13.9353 c 0,0 -898.49645,0 -898.49645,0 h -13.93534 l -8.7883,-0.005 -24.07532,-31.15784 -109.897191,0.0255 6.318859,-8.82122 114.470322,-0.0303 21.19171,26.43855 c 0,0 0.80142,0.008 0.80142,0.008 z" /><path
       id="path28"
       style="fill:url(#linearGradient26);fill-opacity:1;fill-rule:evenodd;stroke:none"
       d="M 142.5179,87.695989 H 65.68875 L 79.958918,70.537811 h 76.829142 z" /><path
       id="path36"
       style="fill:url(#linearGradient34);fill-opacity:1;fill-rule:evenodd;stroke:none"
       d="M 177.16393,48.62291 H 95.209698 l 9.042482,-10.872509 h 81.95423 z" /><path
       id="path44"
       style="fill:url(#linearGradient42);fill-opacity:1;fill-rule:evenodd;stroke:none"
       d="m 1138.7686,87.695989 h 76.8292 l -14.2702,-17.158178 h -76.8291 z" /><path
       id="path52"
       style="fill:url(#linearGradient50);fill-opacity:1;fill-rule:evenodd;stroke:none"
       d="m 1104.1226,48.62291 h 81.9542 l -9.0425,-10.872509 h -81.9542 z" /><path
       id="path60"
       style="fill:url(#linearGradient58);fill-opacity:1;fill-rule:evenodd;stroke:none"
       d="M 222.11976,115.92198 V 54.214414 h 49.64837 c 3.38018,0.0837 6.19899,1.241864 8.45646,3.474504 2.25747,2.232638 3.42985,5.037574 3.51714,8.414806 v 37.929136 c -0.0873,3.37715 -1.25967,6.18203 -3.51714,8.41465 -2.25746,2.23261 -5.07628,3.39077 -8.45646,3.47447 z m 50.24775,-49.818256 c -0.004,-0.175201 -0.0607,-0.318221 -0.17126,-0.429063 -0.1106,-0.110841 -0.2533,-0.16805 -0.42812,-0.171625 h -37.76037 c -0.17482,0.0036 -0.31753,0.06078 -0.42813,0.171625 -0.1106,0.110842 -0.16768,0.253862 -0.17125,0.429063 v 37.929136 c 0.004,0.17519 0.0607,0.31818 0.17125,0.42897 0.1106,0.11079 0.25331,0.16796 0.42813,0.17153 h 37.76037 c 0.17482,-0.004 0.31753,-0.0607 0.42812,-0.17153 0.1106,-0.11079 0.16769,-0.25378 0.17126,-0.42897 z" /><path
       id="path68"
       style="fill:url(#linearGradient66);fill-opacity:1;fill-rule:evenodd;stroke:none"
       d="m 290.5149,54.214413 h 11.20302 V 103.86295 H 290.5149 Z m 0,65.902017 V 108.8278 h 11.20302 v 11.28863 z" /><path
       id="path76"
       style="fill:url(#linearGradient74);fill-opacity:1;fill-rule:evenodd;stroke:none"
       d="m 322.26215,103.85225 c -3.33555,-0.0855 -6.11509,-1.24005 -8.33865,-3.46362 -2.22355,-2.223564 -3.37808,-5.0031 -3.46358,-8.338608 V 54.214413 h 11.20302 v 37.835609 c 0.004,0.174768 0.0606,0.317436 0.1712,0.428006 0.11057,0.110568 0.25324,0.167636 0.42801,0.171202 h 27.56349 v 11.20302 z" /><path
       id="path84"
       style="fill:url(#linearGradient82);fill-opacity:1;fill-rule:evenodd;stroke:none"
       d="m 394.17737,103.85225 h -26.80331 c -3.33565,-0.0855 -6.11526,-1.24007 -8.33884,-3.46372 -2.22358,-2.22365 -3.37812,-5.003425 -3.46361,-8.339322 V 66.017446 c 0.0855,-3.335927 1.24003,-6.115709 3.46361,-8.339345 2.22358,-2.223636 5.00319,-3.378198 8.33884,-3.463687 h 38.60579 v 11.203021 h -38.60579 c -0.17483,0.0036 -0.31756,0.06072 -0.42817,0.171432 -0.11061,0.110716 -0.1677,0.253577 -0.17126,0.428579 v 7.371576 h 39.20522 v 18.660186 c -0.0855,3.335897 -1.24005,6.115672 -3.46365,8.339322 -2.22359,2.22365 -5.0032,3.37823 -8.33883,3.46372 z M 366.77463,84.677644 v 7.371564 c 0.004,0.175003 0.0607,0.317865 0.17126,0.428585 0.11061,0.110718 0.25334,0.167865 0.42817,0.171437 h 26.80331 c 0.17484,-0.0036 0.31756,-0.06072 0.42818,-0.171437 0.11062,-0.11072 0.16771,-0.253582 0.17128,-0.428585 v -7.371564 z" /><path
       id="path92"
       style="fill:url(#linearGradient90);fill-opacity:1;fill-rule:evenodd;stroke:none"
       d="m 425.49686,65.417435 c -0.17477,0.0036 -0.31743,0.06066 -0.428,0.17127 -0.11057,0.110611 -0.16764,0.253336 -0.1712,0.428175 v 26.033005 c 0.004,0.174833 0.0606,0.317541 0.1712,0.428125 0.11057,0.110582 0.25323,0.167657 0.428,0.17122 h 38.43482 v 11.20302 h -38.43482 c -3.33554,-0.0855 -6.11509,-1.24005 -8.33864,-3.46363 -2.22355,-2.223586 -3.37808,-5.003163 -3.46359,-8.338735 V 66.01688 c 0.0855,-3.335656 1.24004,-6.115272 3.46359,-8.338849 2.22355,-2.223579 5.0031,-3.378118 8.33864,-3.463617 h 38.60602 v 11.203021 z" /><path
       id="path100"
       style="fill:url(#linearGradient98);fill-opacity:1;fill-rule:evenodd;stroke:none"
       d="m 502.6233,92.64923 v 11.20302 h -19.34581 v 16.26418 H 472.07447 V 66.01688 c 0.0802,-3.335656 1.22399,-6.115272 3.43151,-8.338849 2.20752,-2.223579 4.99776,-3.378118 8.37071,-3.463617 h 18.74661 v 11.203021 h -18.74661 c -0.17477,0.0036 -0.31743,0.06066 -0.428,0.17127 -0.11057,0.110611 -0.16764,0.253336 -0.1712,0.428175 v 26.63235 z" /><path
       id="path108"
       style="fill:url(#linearGradient106);fill-opacity:1;fill-rule:evenodd;stroke:none"
       d="m 597.55472,104.63336 v 11.28862 h -49.56293 c -3.37653,-0.0837 -6.18103,-1.24186 -8.41351,-3.47447 -2.23249,-2.23262 -3.3906,-5.0375 -3.47432,-8.41465 V 66.103724 c 0.0837,-3.377232 1.24183,-6.182168 3.47432,-8.414808 2.23248,-2.232639 5.03698,-3.390807 8.41351,-3.474502 h 49.56293 v 11.288622 h -49.56293 c -0.17477,0.0036 -0.31744,0.06078 -0.42801,0.171625 -0.11057,0.110842 -0.16763,0.253862 -0.1712,0.429063 v 37.929136 c 0.004,0.17519 0.0606,0.31818 0.1712,0.42897 0.11057,0.11079 0.25324,0.16796 0.42801,0.17153 z" /><path
       id="path116"
       style="fill:url(#linearGradient114);fill-opacity:1;fill-rule:evenodd;stroke:none"
       d="m 617.84237,103.85225 c -3.33565,-0.0855 -6.11527,-1.24005 -8.33884,-3.46363 -2.22358,-2.223586 -3.37812,-5.003163 -3.46361,-8.338735 V 66.01688 c 0.0855,-3.335656 1.24003,-6.115272 3.46361,-8.338849 2.22357,-2.223579 5.00319,-3.378118 8.33884,-3.463617 h 26.80331 c 3.33563,0.0855 6.11524,1.240038 8.33883,3.463617 2.2236,2.223577 3.37814,5.003193 3.46365,8.338849 v 26.033005 c -0.0855,3.335573 -1.24005,6.11515 -3.46365,8.338735 -2.22359,2.22358 -5.0032,3.37812 -8.33883,3.46363 z m 26.80331,-11.20302 c 0.17484,-0.0036 0.31756,-0.06064 0.42818,-0.17122 0.11062,-0.110583 0.16771,-0.253292 0.17128,-0.428125 V 66.01688 c -0.004,-0.174839 -0.0607,-0.317564 -0.17128,-0.428175 -0.11062,-0.110611 -0.25334,-0.167701 -0.42818,-0.17127 h -26.80331 c -0.17483,0.0036 -0.31756,0.06066 -0.42817,0.17127 -0.11061,0.110611 -0.1677,0.253336 -0.17126,0.428175 v 26.033005 c 0.004,0.174833 0.0607,0.317541 0.17126,0.428125 0.11061,0.110582 0.25334,0.167657 0.42817,0.17122 z" /><path
       id="path124"
       style="fill:url(#linearGradient122);fill-opacity:1;fill-rule:evenodd;stroke:none"
       d="M 701.8271,103.85225 H 663.22133 V 54.214413 h 11.20302 v 37.835609 c 0.004,0.174768 0.0607,0.317436 0.17127,0.428006 0.11061,0.110568 0.25333,0.167636 0.42817,0.171202 h 26.80331 c 0.17484,-0.0036 0.31756,-0.06064 0.42818,-0.171202 0.11062,-0.110568 0.16771,-0.253237 0.17128,-0.428006 V 54.214413 h 11.20302 v 37.835609 c -0.0855,3.335508 -1.24005,6.115044 -3.46365,8.338608 -2.22359,2.22357 -5.0032,3.37811 -8.33883,3.46362 z" /><path
       id="path132"
       style="fill:url(#linearGradient130);fill-opacity:1;fill-rule:evenodd;stroke:none"
       d="M 761.40534,103.85225 H 722.79958 V 54.214413 h 11.20302 v 37.835609 c 0.004,0.174768 0.0607,0.317436 0.17127,0.428006 0.11061,0.110568 0.25333,0.167636 0.42816,0.171202 h 26.80331 c 0.17484,-0.0036 0.31757,-0.06064 0.42818,-0.171202 0.11062,-0.110568 0.16771,-0.253237 0.17128,-0.428006 V 54.214413 h 11.20302 v 37.835609 c -0.0855,3.335508 -1.24005,6.115044 -3.46364,8.338608 -2.2236,2.22357 -5.00321,3.37811 -8.33884,3.46362 z" /><path
       id="path140"
       style="fill:url(#linearGradient138);fill-opacity:1;fill-rule:evenodd;stroke:none"
       d="m 818.58676,103.85225 h -26.80331 c -3.33565,-0.0855 -6.11526,-1.24007 -8.33884,-3.46372 -2.22358,-2.22365 -3.37811,-5.003425 -3.46361,-8.339322 V 66.017446 c 0.0855,-3.335927 1.24004,-6.115709 3.46361,-8.339345 2.22358,-2.223636 5.00319,-3.378198 8.33884,-3.463687 h 38.60579 v 11.203021 h -38.60579 c -0.17483,0.0036 -0.31756,0.06072 -0.42817,0.171432 -0.11061,0.110716 -0.16769,0.253577 -0.17126,0.428579 v 7.371576 h 39.20522 v 18.660186 c -0.0855,3.335897 -1.24005,6.115672 -3.46365,8.339322 -2.22359,2.22365 -5.0032,3.37823 -8.33883,3.46372 z M 791.18402,84.677644 v 7.371564 c 0.004,0.175003 0.0607,0.317865 0.17126,0.428585 0.11061,0.110718 0.25334,0.167865 0.42817,0.171437 h 26.80331 c 0.17484,-0.0036 0.31757,-0.06072 0.42818,-0.171437 0.11062,-0.11072 0.16771,-0.253582 0.17128,-0.428585 v -7.371564 z" /><path
       id="path148"
       style="fill:url(#linearGradient146);fill-opacity:1;fill-rule:evenodd;stroke:none"
       d="m 849.90625,65.417435 c -0.17477,0.0036 -0.31743,0.06066 -0.428,0.17127 -0.11057,0.110611 -0.16764,0.253336 -0.1712,0.428175 v 26.033005 c 0.004,0.174833 0.0606,0.317541 0.1712,0.428125 0.11057,0.110582 0.25323,0.167657 0.428,0.17122 h 38.43482 v 11.20302 h -38.43482 c -3.33554,-0.0855 -6.11509,-1.24005 -8.33864,-3.46363 -2.22355,-2.223586 -3.37808,-5.003163 -3.46358,-8.338735 V 66.01688 c 0.0855,-3.335656 1.24003,-6.115272 3.46358,-8.338849 2.22356,-2.223579 5.0031,-3.378118 8.33864,-3.463617 h 38.60602 v 11.203021 z" /><path
       id="path156"
       style="fill:url(#linearGradient154);fill-opacity:1;fill-rule:evenodd;stroke:none"
       d="m 927.03269,92.64923 v 11.20302 h -19.34581 v 16.26418 H 896.48386 V 66.01688 c 0.0802,-3.335656 1.22399,-6.115272 3.43151,-8.338849 2.20752,-2.223579 4.99776,-3.378118 8.37072,-3.463617 h 18.7466 v 11.203021 h -18.7466 c -0.17477,0.0036 -0.31744,0.06066 -0.42801,0.17127 -0.11057,0.110611 -0.16764,0.253336 -0.1712,0.428175 v 26.63235 z" /><path
       id="path164"
       style="fill:url(#linearGradient162);fill-opacity:1;fill-rule:evenodd;stroke:none"
       d="m 933.80586,54.214413 h 11.20302 v 49.648537 h -11.20302 z m 0,65.902017 V 108.8278 h 11.20302 v 11.28863 z" /><path
       id="path172"
       style="fill:url(#linearGradient170);fill-opacity:1;fill-rule:evenodd;stroke:none"
       d="m 965.46773,103.85225 c -3.33565,-0.0855 -6.11526,-1.24005 -8.33884,-3.46363 -2.22358,-2.223586 -3.37811,-5.003163 -3.46361,-8.338735 V 66.01688 c 0.0855,-3.335656 1.24003,-6.115272 3.46361,-8.338849 2.22358,-2.223579 5.00319,-3.378118 8.33884,-3.463617 h 26.80331 c 3.33563,0.0855 6.11524,1.240038 8.33886,3.463617 2.2236,2.223577 3.3781,5.003193 3.4636,8.338849 v 26.033005 c -0.085,3.335573 -1.24,6.11515 -3.4636,8.338735 -2.22362,2.22358 -5.00323,3.37812 -8.33886,3.46363 z m 26.80331,-11.20302 c 0.17484,-0.0036 0.31756,-0.06064 0.42818,-0.17122 0.11062,-0.110583 0.16771,-0.253292 0.17128,-0.428125 V 66.01688 c -0.004,-0.174839 -0.0607,-0.317564 -0.17128,-0.428175 -0.11062,-0.110611 -0.25334,-0.167701 -0.42818,-0.17127 h -26.80331 c -0.17483,0.0036 -0.31756,0.06066 -0.42817,0.17127 -0.11061,0.110611 -0.1677,0.253336 -0.17126,0.428175 v 26.033005 c 0.004,0.174833 0.0607,0.317541 0.17126,0.428125 0.11061,0.110582 0.25334,0.167657 0.42817,0.17122 z" /><path
       id="path180"
       style="fill:url(#linearGradient178);fill-opacity:1;fill-rule:evenodd;stroke:none"
       d="m 1049.4525,103.85225 h -38.6058 V 54.214413 h 11.203 v 37.835609 c 0,0.174768 0.061,0.317436 0.1713,0.428006 0.1106,0.110568 0.2533,0.167636 0.4282,0.171202 h 26.8033 c 0.1748,-0.0036 0.3175,-0.06064 0.4281,-0.171202 0.1107,-0.110568 0.1677,-0.253237 0.1713,-0.428006 V 54.214413 h 11.203 v 37.835609 c -0.085,3.335508 -1.24,6.115044 -3.4636,8.338608 -2.2236,2.22357 -5.0032,3.37811 -8.3388,3.46362 z" /><path
       id="path182"
       style="fill:#74e3fd;fill-opacity:1;fill-rule:nonzero;stroke:none"
       d="m 1122.9148,63.604365 -5.8803,-6.098094 163.7092,2.111933 z" /><path
       id="path190"
       style="fill:url(#linearGradient188);fill-opacity:1;fill-rule:evenodd;stroke:none"
       d="m 1014.4243,6.281179 h 5.4356 l 0.6961,-8.56e-4 9.0586,9.407874 h -0.1469 l -0.064,-7.68e-4 -338.78857,7.68e-4 H 664.47834 254.34925 l 9.05866,-9.407874 0.69604,8.56e-4 h 5.43562 744.88433 z M 1014.3242,0 h 5.5071 c 0,0 7.6045,0.001646 7.6045,0.001646 l 15.1192,15.686551 h 0.1028 l 0.065,-7.68e-4 14.7216,7.68e-4 c 0,0 6.6389,0.0037 6.6389,0.0037 l 70.6374,80.328554 h 86.8322 l 6.8559,10.003759 -93.6881,-0.0311 -1.5218,0.0285 -75.3628,-82.792354 H 688.76248 664.74735 223.47795 l -75.36282,82.792354 -1.52181,-0.0285 -93.688138,0.0311 6.855882,-10.003759 h 86.832256 l 70.63741,-80.328554 c 0,0 6.63891,-0.0037 6.63891,-0.0037 H 241.4093 L 256.52848,0.001646 c 0,0 7.60448,-0.001646 7.60448,-0.001646 h 5.50714 z" /><path
       id="path192"
       style="fill:#74e3fd;fill-opacity:1;fill-rule:nonzero;stroke:none"
       d="M 1077.359,9.042297 V 4.835254 l 95.4123,2.23662 z" /><path
       id="path194"
       style="fill:#74e3fd;fill-opacity:1;fill-rule:nonzero;stroke:none"
       d="M 205.49227,9.042297 V 4.835254 l -95.41231,2.23662 z" /><path
       id="path196"
       style="fill:#74e3fd;fill-opacity:1;fill-rule:nonzero;stroke:none"
       d="M 157.82893,63.604365 163.70924,57.506271 0,59.618204 Z" /></g></svg>