<svg xmlns="http://www.w3.org/2000/svg" xmlns:xlink="http://www.w3.org/1999/xlink" version="1.1" width="392.89158" height="398.88859" viewBox="0 0 392.89158 398.88859">
<g id="layer_1" data-name="Layer 1">
<path transform="matrix(1,0,0,-1,0,398.88859)" d="M124.72377 382.66468 114.80315 351.09907C114.31743 349.5536 114.200138 349.2808 113.63019 348.37123 112.60303 346.73197 111.42011 346.05796 109.39016 345.6551 108.15113 345.40919 107.83824 345.4231 106.26131 345.79414L75.76561 352.96958C74.188678 353.34065 73.90224 353.39457 72.90124 353.50898 70.61265 353.7705 67.51707 352.34886 66.700038 349.8032 66.53212 349.28 66.52076 349.042 66.586498 347.42335L67.94043 314.08039C68.00616 312.4617 67.99762 312.1991 67.85505 311.4541 67.446918 309.32154 65.52042 307.66706 64.55808 307.06996 63.276197 306.27455 39.9394 303.29014 27.597376 301.62284 25.991852 301.40596 25.735682 301.3064 25.035668 300.62739 23.364602 299.00639 22.970038 296.76606 23.01346 295.88188 23.165034 292.7955 37.37777 262.92878 37.51346 259.88188 37.560758 258.8198 36.774908 255.61916 34.32931 254.12899 33.595045 253.68157 33.352994 253.55031 31.908787 252.81636L4.618133 238.94734C3.173927 238.21341 2.929972 238.06549 2.178581 237.46823 .229428 235.91892-.556435 233.45858 .418567 231.18582 .728971 230.46225 .883366 230.2476 1.96252 229.03939L26.51346 201.55187V197.21186L1.974154 170.21385C.884529 169.01506 .727068 168.7848 .399539 167.9114-.296942 166.05413-.00227 163.30643 1.540124 161.83379 1.966126 161.42705 2.172284 161.29715 3.601695 160.5348L38.58256 141.87834 23.666407 103.55926C23.078755 102.0496 23.030825 101.8124 23.187096 101.18732 23.52927 99.81862 24.997025 98.093029 26.299889 97.47199 26.942103 97.16587 27.19184 97.10775 28.797247 96.89081L62.229677 92.37291C63.83508 92.15596 64.09505 92.082149 64.82931 91.634738 65.788959 91.049999 67.61986 88.740779 67.91318 86.9903 68.00343 86.4517 68.0062 86.212009 67.9409 84.59332L66.58602 51.010396C66.52071 49.391714 66.60087 49.096757 67.38754 48.060846 68.88296 46.091653 69.77734 45.597578 72.20825 45.460878 73.47294 45.38976 73.78912 45.421113 75.37013 45.77441L107.656787 52.989305C109.23779 53.3426 109.5048 53.35013 110.32683 53.064558 112.002368 52.482484 113.387409 50.924966 113.76346 50.38186 115.706928 47.57505 121.989208 20.832083 124.76346 15.381857 125.98186 12.988227 127.90953 11.401469 131.31346 11.881857 131.81462 11.952584 132.33933 12.07573 132.8094 12.298381 133.44306 12.598509 133.6655 12.72822 135.0338 13.595485L163.15312 31.418229C164.52143 32.285497 164.74605 32.390153 165.3994 32.46482 167.12071 32.661546 168.798 31.689595 169.51346 31.131857 172.80188 28.568379 189.59249 3.795062 192.76346 1.381857 194.89049-.23688 198.04631-.757898 200.48044 1.61767 201.18515 2.305438 201.37345 2.524343 202.36336 3.80672L222.16356 29.456994C223.15348 30.73937 223.35466 30.942883 224.1754 31.492104 225.34601 32.275434 226.58467 32.62172 227.84763 32.47738 228.59989 32.39141 228.83502 32.284765 230.19913 31.410906L257.9978 13.602809C259.3619 12.728952 259.58387 12.598509 260.21754 12.298381 261.95713 11.474414 264.23973 11.728124 265.67527 12.614375 266.42964 13.080109 266.5762 13.300573 267.14076 14.819021L281.62928 53.788145 320.92005 45.742937C322.5071 45.417966 322.79548 45.453474 323.80354 46.09801 325.01667 46.873655 325.98777 47.9039 326.32688 48.960535 326.4948 49.483728 326.50614 49.721708 326.44026 51.340368L325.08668 84.593349C325.02079 86.212009 325.041 86.51313 325.28865 87.60455 325.67668 89.314647 326.5302 90.575839 328.0028 91.49858 328.91239 92.06853 329.19184 92.15596 330.79725 92.37291L364.22969 96.89081C365.83509 97.10775 366.0848 97.16587 366.72703 97.47199 368.49128 98.31295 369.65446 100.16088 369.87788 101.85432 369.9999 102.779109 369.94779 103.049449 369.3567 104.55776L354.46208 142.56475 388.40879 159.81636C389.853 160.55031 390.10749 160.70734 390.95359 161.38672 392.7012 162.78997 393.74797 166.21573 391.92866 169.20064 391.555 169.81374 391.39198 170.01468 390.29856 171.21L364.7462 199.14383 391.84733 231.01067C392.89686 232.24474 392.99464 232.51059 392.82527 233.66922 392.6996 234.52875 392.46818 235.33483 392.01347 236.13185 391.04026 237.83773 359.8271 253.00478 356.76347 255.88185 355.81568 256.77195 355.45854 257.6112 355.51347 258.88188 355.64836 262.00099 369.88404 292.77665 370.01347 295.88188 370.0458 296.65797 369.6982 298.8976 368.17869 300.39363 367.58 300.98304 367.33549 301.07533 365.73353 301.31648L330.5434 306.61393C328.94148 306.85508 328.6819 306.93159 327.9476 307.37898 326.59959 308.20039 325.86399 309.3012 325.37388 311.07066 325.0495 312.24174 325.02073 312.5517 325.08604 314.17039L326.4409 347.75334C326.5062 349.372 326.42607 349.66697 325.63938 350.70289 324.07365 352.76469 323.2325 353.16575 320.54978 353.30317 319.16709 353.374 318.8381 353.3412 317.25999 352.97526L286.26695 345.78846C284.6888 345.42253 284.39189 345.40937 283.29756 345.65699 281.1392 346.1454 279.83189 347.48655 279.26347 348.38188 277.1617 351.69224 270.79115 378.71623 268.26347 383.38188 266.55625 386.53306 264.25923 387.57225 261.17347 386.88188 258.0362 386.17997 229.67653 366.79917 227.01346 366.38188 225.77358 366.18757 224.66977 366.5818 223.51346 367.63188 219.05731 371.67866 202.60376 395.967 200.01346 397.63188 197.72992 399.09956 195.56801 399.30204 193.51346 398.13188 191.1787 396.8021 172.16849 369.36866 169.51346 367.63188 167.88658 366.56764 166.47834 366.1708 165.01346 366.38188 162.50287 366.7436 134.65624 386.3395 131.85346 386.88188 130.38874 387.16529 127.411449 387.08418 125.77961 385.03123 125.31508 384.44679 125.20949 384.21015 124.72377 382.66468Z" fill="#d50002" fill-rule="evenodd"/>
<path transform="matrix(1,0,0,-1,0,398.88859)" d="M131.69586 209.57363 144.78772 213.87592 123.864688 277.54447 110.772838 273.24217 125.00985 229.91909 85.51739 264.94264 72.07598 260.52546 92.99901 196.85689 106.09086 201.1592 91.62412 245.18134 131.69586 209.57363Z" fill="#ffffff"/>
<path transform="matrix(1,0,0,-1,0,398.88859)" d="M161.10608 249.6291 191.59186 259.64747 188.00722 270.55555 157.52143 260.53718 152.78136 274.96113 185.713 285.78327 182.12834 296.6913 136.10486 281.5669 157.0279 217.89833 204.6237 233.53948 201.03907 244.44754 166.5351 233.10869 161.10608 249.6291Z" fill="#ffffff"/>
<path transform="matrix(1,0,0,-1,0,398.88859)" d="M272.15214 255.73096 268.87416 325.1981 254.98522 320.63386 261.16517 269.72608 235.15636 314.1176 222.22829 309.86915 228.0301 258.9339 202.48677 303.3816 188.59784 298.81736 227.51535 241.06223 239.30783 244.93752 233.36974 298.05458 260.35963 251.85565 272.15214 255.73096Z" fill="#ffffff"/>
<path transform="matrix(1,0,0,-1,0,398.88859)" d="M97.65508 144.65906 84.563228 140.35677 105.48626 76.68821 149.06389 91.00888 145.47925 101.91694 114.99346 91.89857 97.65508 144.65906Z" fill="#ffffff"/>
<path transform="matrix(1,0,0,-1,0,398.88859)" d="M162.13098 167.00884C157.66791 165.54015 153.86214 163.47164 150.71367 160.8033 147.56522 158.13497 145.11476 154.89228 143.36232 151.07523 141.52887 147.03546 140.54047 142.64962 140.39714 137.91768 140.2538 133.18576 140.96385 128.4134 142.52733 123.600627 144.12532 118.79314 146.38816 114.51897 149.31586 110.778118 152.24356 107.037258 155.63732 104.10362 159.49712 101.977199 163.21567 99.91574 167.11919 98.74904 171.20769 98.47707 175.29618 98.20511 179.60898 98.81664 184.1461 100.31168 188.68561 101.799449 192.52046 103.865428 195.65065 106.50962 198.78083 109.15382 201.23137 112.40862 203.00228 116.27405 204.79228 120.18856 205.77204 124.52717 205.94155 129.28987 206.11106 134.05258 205.45752 138.72653 203.98094 143.31172 202.31417 148.32854 200.00943 152.73014 197.06674 156.5165 194.12407 160.30286 190.7243 163.25472 186.86748 165.37209 183.10538 167.46152 179.1946 168.63793 175.13513 168.9013 171.07567 169.16468 166.74095 168.53386 162.13098 167.00884ZM165.88913 155.86743C171.34812 157.57668 176.28636 156.94869 180.70384 153.98345 185.12134 151.0182 188.50685 146.05599 190.86038 139.0968 192.96729 132.42768 193.0855 126.617649 191.215 121.66672 189.34449 116.71579 185.7646 113.320819 180.47533 111.4818 175.0522 109.7924 170.1297 110.40942 165.70786 113.33286 161.28601 116.25631 157.92313 121.11299 155.61917 127.90292 153.44629 134.73593 153.2727 140.64072 155.09842 145.61728 156.92414 150.59384 160.52103 154.01058 165.88913 155.86743Z" fill="#ffffff"/>
<path transform="matrix(1,0,0,-1,0,398.88859)" d="M268.0563 168.0404 242.54959 159.65828 246.13423 148.75022 260.63465 153.5154C261.0496 151.70047 261.21638 150.0885 261.135 148.67949 261.05363 147.27048 260.7196 145.85713 260.13294 144.43946 259.16285 141.97359 257.71607 139.83538 255.79264 138.02481 253.8692 136.21425 251.64781 134.88695 249.12851 134.0429 243.67185 132.37516 238.62465 133.03243 233.98693 136.01471 229.3492 138.99698 225.89014 143.80434 223.60974 150.43677 221.37964 157.3702 221.18238 163.27179 223.01793 168.14153 224.85349 173.01128 228.57848 176.402 234.1929 178.3137 236.47011 179.06003 238.66214 179.42127 240.76902 179.39742 242.87587 179.37357 244.86122 178.9648 246.72507 178.1711 247.86576 177.71878 248.8859 177.1179 249.78548 176.36847 250.68506 175.61904 251.6741 174.52375 252.75261 173.08258L265.0692 177.13013C262.0023 183.50531 257.41316 187.77555 251.30176 189.94083 245.19039 192.10611 238.23473 191.9442 230.43477 189.45511 224.2941 187.38773 219.37744 184.20514 215.68482 179.90735 211.99219 175.60956 209.68079 170.54468 208.7506 164.71273 207.8204 158.88076 208.42862 152.62984 210.57524 145.95995 212.75678 139.48657 215.94266 134.17028 220.13288 130.01107 224.32309 125.85185 229.11685 123.07932 234.51416 121.693477 239.91147 120.307628 245.5115 120.53806 251.31429 122.38477 255.56166 123.75639 258.9579 125.76687 261.50297 128.4162 264.04808 131.06552 265.93919 134.56354 267.1764 138.91027L271.5018 131.04938 279.36347 133.63292 268.0563 168.0404Z" fill="#ffffff"/>
<path transform="matrix(1,0,0,-1,0,398.88859)" d="M297.96308 211.64655C293.49998 210.17786 289.6942 208.10935 286.54576 205.44101 283.39729 202.77268 280.94685 199.52999 279.1944 195.71294 277.36094 191.67317 276.37257 187.28733 276.22923 182.55539 276.08589 177.82347 276.79594 173.05112 278.3594 168.23833 279.9574 163.43085 282.2202 159.15668 285.14793 155.41582 288.07563 151.67498 291.4694 148.74134 295.3292 146.6149 299.04774 144.55345 302.95127 143.38675 307.03977 143.11478 311.12825 142.84282 315.44105 143.45436 319.97819 144.94939 324.5177 146.43717 328.35255 148.50315 331.48274 151.14734 334.6129 153.79154 337.06346 157.04634 338.83436 160.91176 340.62437 164.82627 341.6041 169.16489 341.77363 173.92758 341.9431 178.69029 341.28959 183.36425 339.81303 187.94944 338.14625 192.96625 335.8415 197.36785 332.89884 201.1542 329.95616 204.94057 326.5564 207.89243 322.69956 210.0098 318.93745 212.09923 315.02668 213.27564 310.9672 213.53902 306.90776 213.80239 302.57304 213.17157 297.96308 211.64655ZM301.72123 200.50514C307.18019 202.21439 312.11845 201.5864 316.53593 198.62116 320.9534 195.65592 324.33894 190.6937 326.69245 183.73451 328.79939 177.06539 328.91758 171.25536 327.04707 166.30443 325.17655 161.3535 321.59669 157.95853 316.3074 156.1195 310.88429 154.4301 305.9618 155.04714 301.53996 157.97058 297.1181 160.89402 293.7552 165.7507 291.45124 172.54064 289.27839 179.37364 289.10478 185.27843 290.93049 190.25499 292.7562 195.23157 296.35313 198.64829 301.72123 200.50514Z" fill="#ffffff"/>
</g>
</svg>
