<?xml version="1.0" encoding="UTF-8" standalone="no"?>
<svg
   xmlns:dc="http://purl.org/dc/elements/1.1/"
   xmlns:cc="http://creativecommons.org/ns#"
   xmlns:rdf="http://www.w3.org/1999/02/22-rdf-syntax-ns#"
   xmlns:svg="http://www.w3.org/2000/svg"
   xmlns="http://www.w3.org/2000/svg"
   viewBox="0 0 2978.5393 1042.5123"
   height="1042.5123"
   width="2978.5393"
   xml:space="preserve"
   id="svg2"
   version="1.1"><metadata
     id="metadata8"><rdf:RDF><cc:Work
         rdf:about=""><dc:format>image/svg+xml</dc:format><dc:type
           rdf:resource="http://purl.org/dc/dcmitype/StillImage" /></cc:Work></rdf:RDF></metadata><defs
     id="defs6" /><g
     transform="matrix(1.3333333,0,0,-1.3333333,0,1042.5123)"
     id="g10"><path
       id="path12"
       style="fill:#fe0000;fill-opacity:1;fill-rule:evenodd;stroke:none"
       d="M 994.23911,280.55374 936.04233,134.14947 h 619.57107 c 0,0 2.9034,-16.42106 5.9077,-28.3568 13.7705,-54.708193 61.3358,-102.054574 118.0079,-95.976855 34.0263,3.649108 55.7009,22.736021 75.5742,52.360193 1.97,2.936482 2.3286,3.629673 3.5865,6.931903 l 80.03,210.097489 h 130.1577 v 77.43588 h -97.2079 c 0,0 132.954,357.29717 139.1978,367.54773 6.5312,10.7226 15.9553,24.98452 27.8114,34.35535 12.3556,9.76562 33.888,22.35825 33.888,22.35825 0,0 -728.5699,2.20856 -755.9393,0 -27.5816,-2.22569 -75.4658,-7.76981 -103.5678,-24.53954 -18.8578,-11.25332 -38.2643,-32.81333 -46.8977,-49.62439 -11.7788,-22.93572 -47.0164,-114.83784 -47.0302,-114.87364 -0.014,-0.0358 -124.31244,-309.85185 -124.89259,-311.3113 z" /><path
       id="path14"
       style="fill:#fe0000;fill-opacity:1;fill-rule:evenodd;stroke:none"
       d="m 2019.0471,667.47541 h 214.8573 c 0,0 -2.2546,14.00793 -4.3626,23.4489 -13.262,59.39684 -70.9469,94.30603 -131.9682,79.61716 -37.7516,-9.08748 -59.2092,-34.34111 -73.6186,-68.16538 -2.3946,-5.62104 -4.5111,-12.63385 -4.9079,-19.60982 -0.3718,-6.53608 0,-15.29086 0,-15.29086 z" /><path
       id="path16"
       style="fill:#ffffff;fill-opacity:1;fill-rule:evenodd;stroke:none"
       d="m 1129.0799,466.79653 1.0906,61.07618 167.4014,0.023 c 1.7594,-0.0177 3.5026,0.57278 4.9207,1.61296 2.9214,2.17426 5.582,4.67844 7.9291,7.46283 12.5106,14.64011 22.5342,19.4886 37.7103,30.61552 3.7802,2.7716 5.5808,5.36589 1.6151,8.50909 -0.5826,0.50164 -1.3243,0.78001 -2.0931,0.78545 l -310.1884,0.0702 V 296.65571 h 91.6143 l 1.0906,126.51495 h 138.5121 c -0.8058,14.96386 0.4193,29.14548 3.2719,43.62584 h -142.8746 z" /><path
       id="path18"
       style="fill:#ffffff;fill-opacity:1;fill-rule:evenodd;stroke:none"
       d="m 1953.6083,341.37223 h -202.8601 v 232.30762 h -83.9798 V 295.56509 h 286.8399 z" /><path
       id="path20"
       style="fill:#000000;fill-opacity:1;fill-rule:evenodd;stroke:none"
       d="m 1024.7715,281.42159 h 119.4118 l 1.0906,126.51495 h 124.0785 c 6.4961,-41.29785 30.8031,-77.89282 64.3056,-102.10916 21.1515,-15.28874 45.8735,-26.66534 71.4093,-32.24188 44.9292,-9.7096 91.3714,-10.10932 136.461,-1.17448 22.3222,4.34668 43.889,11.93382 64.0159,22.52069 17.6424,9.14901 33.2786,21.73135 45.9901,37.00793 v -51.60869 h 317.3082 v 76.27542 h -202.8602 v 232.30762 h -114.448 v -54.04173 c -4.4874,5.49314 -9.1674,10.82614 -14.0312,15.98903 l -0.5593,0.56351 c -41.6825,40.91705 -116.2929,51.39315 -175.7025,48.37661 -32.6844,-1.42582 -64.8161,-8.93491 -94.7472,-22.14212 -3.1183,10.47454 -12.766,14.34541 -18.7324,14.45604 l -325.0431,0.0739 -0.6953,0.0316 h -0.9174 V 452.87276 L 963.30169,588.9489 H 818.1466 L 776.23125,486.48914 c 0,0 -3.64493,24.11464 -7.60989,35.93034 -11.57498,34.49371 -56.16865,54.36177 -87.25169,61.07618 -14.57874,3.14924 -41.22407,6.49424 -60.81443,7.63453 -37.94348,2.20856 -235.29599,0 -235.29599,0 V 537.1299 c 0,0 -11.25715,11.2117 -19.63163,18.55429 C 309.03979,605.29938 198.276,609.04402 133.32,590.58487 59.843662,569.7044 6.748271,517.69931 0.261177,439.80304 -1.716334,416.05732 7.781159,379.11871 20.43813,356.64128 c 30.52879,-54.2159 88.37163,-81.70919 147.78255,-88.88766 63.4217,-7.66309 146.74687,3.27124 191.95371,40.3539 11.14027,9.13824 25.08486,22.23431 25.08486,22.23431 v -48.95514 h 115.60849 v 110.15526 h 69.12515 l 68.29626,-110.15526 h 170.226 l 16.10859,38.18333 130.71428,-1.11398 15.3871,-38.15999 h 23.41133 l -0.0532,-0.1339 c 0,0 30.68825,1.25944 30.68825,1.25944 z" /><path
       id="path22"
       style="fill:#ffffff;fill-opacity:1;fill-rule:evenodd;stroke:none"
       d="m 1129.0799,466.79653 1.0906,61.07618 h 164.7749 c 3.5336,0 4.0531,0.0407 5.1943,0.40698 0.8466,0.27172 1.6076,0.72119 2.3529,1.22899 5.4959,3.74451 10.1395,10.66065 16.905,16.90502 11.38,10.50323 28.9957,19.48771 32.1741,24.71404 0.7242,1.19077 0.6842,2.97422 -1.8246,4.96838 -0.9689,0.7701 -1.4692,0.85567 -5.0028,0.85567 H 1037.4656 V 296.65574 h 91.6143 l 1.0906,126.51495 h 138.5121 c 0,0 -0.5895,9.48212 0,19.19537 0.7306,12.03774 3.2719,24.43047 3.2719,24.43047 z" /><path
       id="path24"
       style="fill:#ffffff;fill-opacity:1;fill-rule:evenodd;stroke:none"
       d="m 1953.6083,341.37223 h -202.8601 v 232.30762 h -83.9798 V 295.56509 h 286.8399 z" /><path
       id="path26"
       style="fill:#ffffff;fill-opacity:1;fill-rule:evenodd;stroke:none"
       d="M 718.99696,345.18949 699.01247,296.65574 H 646.93748 L 578.67443,406.811 H 485.59869 V 297.74639 H 400.5283 V 574.7705 c 0,0 197.73179,2.20856 229.47194,0 60.86002,-4.2348 122.11797,-18.86541 129.35062,-79.22454 4.1754,-34.8452 -15.45297,-58.78621 -52.35101,-71.82995 -21.30283,-7.53071 -32.04452,-6.89167 -29.44744,-14.0039 3.45821,-9.47048 41.44455,-64.52262 41.44455,-64.52262 z" /><path
       id="path28"
       style="fill:#ffffff;fill-opacity:1;fill-rule:evenodd;stroke:none"
       d="M 1021.1059,413.00587 V 295.56509 h -40.01305 l -15.9507,39.26326 H 814.603 l -15.98888,-35.55506 v -2.61755 h -83.58395 l 113.37882,277.02411 h 124.06569 z" /><path
       id="path30"
       style="fill:#000000;fill-opacity:1;fill-rule:evenodd;stroke:none"
       d="m 626.37941,523.53995 -139.69007,1.06083 v -70.892 h 134.25853 c 3.5337,0 4.31341,0.07 7.79715,0.70029 16.65495,3.01314 24.25093,8.79747 29.72108,22.20328 4.25161,10.41951 2.89197,22.57929 -4.36258,32.71938 -4.07118,5.69051 -11.08524,9.53888 -20.10295,12.82992 -3.32546,1.21363 -4.08757,1.35146 -7.62116,1.3783 z" /><path
       id="path32"
       style="fill:#000000;fill-opacity:1;fill-rule:evenodd;stroke:none"
       d="m 831.80439,381.72614 h 116.6074 l -60.38808,143.39341 z" /><path
       id="path34"
       style="fill:#ffffff;fill-opacity:1;fill-rule:evenodd;stroke:none"
       d="M 618.39576,468.97782 H 501.95838 v 39.26326 c 0,0 123.05853,0.65758 129.78689,-1.63597 10.09078,-3.43971 17.30197,-16.18412 11.45178,-26.72082 -3.31715,-5.9745 -9.45084,-9.19603 -16.97877,-10.32312 -3.50657,-0.52501 -4.28882,-0.58335 -7.82252,-0.58335 z" /><path
       id="path36"
       style="fill:#ffffff;fill-opacity:1;fill-rule:evenodd;stroke:none"
       d="m 925.11925,396.99518 h -70.81908 l 34.15589,87.00763 z" /><path
       id="path38"
       style="fill:#ffffff;fill-opacity:1;fill-rule:evenodd;stroke:none"
       d="m 699.4017,404.16022 c 0,0 12.53397,4.81358 20.6859,8.10401 7.89645,3.1873 11.68124,4.94544 17.45034,9.27049 5.97808,4.48172 14.40368,11.35557 15.26905,10.36114 0.2866,-0.32936 0.16612,-1.16394 0.0996,-1.74591 -0.0897,-0.78448 -0.25276,-1.23318 -1.6311,-4.48697 L 725.691,365.2668 Z" /><path
       id="path40"
       style="fill:#fe0000;fill-opacity:1;fill-rule:evenodd;stroke:none"
       d="m 781.44735,0 h 827.51685 c 0,0 -13.9048,6.548479 -21.2676,10.906461 -21.9321,12.981311 -45.3647,52.49352 -50.7151,72.527966 -3.355,12.563019 -6.173,29.992773 -6.173,29.992773 H 681.91499 c 0,0 -0.14172,-5.0767 0,-9.59769 1.26893,-40.480327 36.02257,-80.832152 65.43877,-93.468372 7.91613,-3.400506 17.50346,-6.442797 26.41461,-9.200019 C 777.14576,0.116112 777.91366,0 781.44735,0 Z" /><path
       id="path42"
       style="fill:#ffffff;fill-opacity:1;fill-rule:evenodd;stroke:none"
       d="M 386.35893,503.9843 V 364.23048 c 0,-3.53311 -0.22003,-4.25108 -2.2003,-7.17971 -25.10601,-37.1294 -54.33636,-55.38898 -99.22573,-66.88458 -99.84106,-25.56805 -226.720746,-1.3075 -260.10871,94.87033 -19.908975,57.35008 -2.552878,120.95977 45.260006,157.572 52.536724,40.22946 132.579464,49.73244 200.670864,38.16623 32.2859,-5.48419 77.67034,-24.24663 100.88074,-51.79703 4.45032,-5.28247 8.66633,-11.65528 12.5972,-17.76398 1.91334,-2.9734 2.12593,-3.69634 2.12593,-7.22944 z" /><path
       id="path44"
       style="fill:#ffffff;fill-opacity:1;fill-rule:evenodd;stroke:none"
       d="m 1651.4579,506.16522 c 0.069,1.22531 -0.048,2.45401 -0.3463,3.64437 -0.4816,1.24071 -1.1866,2.38265 -2.0799,3.36924 -6.9822,9.54235 -14.5492,18.64273 -22.6577,27.24876 -17.485,17.61488 -46.6685,30.29544 -72.1885,36.25356 -30.2089,6.97476 -61.2533,9.63793 -92.2089,7.91022 -33.6123,-1.45179 -66.5772,-9.73053 -96.8863,-24.33186 -15.2285,-7.48658 -29.208,-17.2821 -41.4431,-29.0395 -13.3564,-12.89837 -23.7473,-28.54697 -30.4522,-45.86083 -7.0437,-17.86756 -10.5779,-36.92481 -10.4094,-56.12952 0.8467,-71.79393 58.5851,-125.94304 125.4679,-140.69917 42.9013,-9.27019 87.2476,-9.65006 130.3015,-1.11618 20.8872,4.06424 41.067,11.16357 59.8976,21.07225 20.7192,10.73459 38.2734,26.69611 50.9233,46.30294 1.8396,2.75405 2.1633,4.44938 2.082,7.26005 z" /><path
       id="path46"
       style="fill:#000000;fill-opacity:1;fill-rule:evenodd;stroke:none"
       d="m 1382.0791,438.10575 c -0.028,-15.60803 2.9386,-31.07654 8.74,-45.56668 5.4515,-13.32486 14.2959,-24.9911 25.6541,-33.83909 22.6297,-17.3186 51.1098,-21.52446 79.443,-19.46293 55.8274,4.06202 90.5705,38.78964 91.1961,98.68696 0.6688,64.01708 -43.4195,103.27503 -110.3689,99.77742 -42.4345,-2.21688 -79.2383,-23.18988 -90.3019,-68.15397 -2.6635,-10.277 -4.1273,-20.82788 -4.3624,-31.44171 z" /><path
       id="path48"
       style="fill:#fe0000;fill-opacity:1;fill-rule:evenodd;stroke:none"
       d="m 1397.3124,437.92391 c 2.1162,90.35036 82.9774,88.71432 114.2694,81.80528 11.874,-2.66169 23.0073,-7.93117 32.5929,-15.42662 19.9083,-15.81987 28.0919,-41.45756 27.7079,-66.03955 -0.09,-10.0269 -1.4055,-20.00521 -3.9169,-29.713 -2.7487,-10.12536 -7.622,-19.54954 -14.2958,-27.6458 -14.3051,-17.07382 -36.9133,-24.9911 -58.6869,-26.46418 -24.4413,-1.65356 -49.5715,1.34143 -69.2657,16.36765 -9.1897,7.19171 -16.35,16.65025 -20.7774,27.44623 -5.0437,12.61764 -7.6325,26.08186 -7.6275,39.66999 z" /><path
       id="path50"
       style="fill:#000000;fill-opacity:1;fill-rule:evenodd;stroke:none"
       d="m 115.8895,446.1461 c -3.50523,-31.96369 10.18356,-68.13745 31.62748,-85.64501 41.88979,-34.2003 119.90787,-27.35756 152.13905,11.44987 30.59135,36.83301 27.10312,104.36396 -4.90771,137.39842 -35.64973,36.78971 -109.16197,38.24216 -147.23134,5.99755 -20.47703,-17.34397 -28.46692,-40.38019 -31.62748,-69.20083 z" /><path
       id="path52"
       style="fill:#ffffff;fill-opacity:1;fill-rule:evenodd;stroke:none"
       d="m 304.56374,445.01202 c 3.52359,-66.93967 -42.75006,-98.68269 -104.69784,-89.41802 -45.24398,6.76652 -68.52092,35.46708 -68.34443,80.69431 0.22337,57.23978 34.79621,88.93286 91.86609,85.51028 46.99435,-2.81833 78.47494,-25.46948 81.17618,-76.78657 z" /><path
       id="path54"
       style="fill:#fe0000;fill-opacity:1;fill-rule:evenodd;stroke:none"
       d="m 1275.9612,482.01298 c 3.586,10.88644 7.9898,20.87302 13.8228,30.62534 l -144.5702,-0.0199 -0.5468,-30.60548 h 131.2942 z" /></g></svg>