<svg xmlns="http://www.w3.org/2000/svg" xmlns:xlink="http://www.w3.org/1999/xlink" version="1.1" width="8661.355" height="6267.562" viewBox="0 0 8661.355 6267.562">
<g id="layer_1" data-name="Layer 1">
<path transform="matrix(1,0,0,-1,0,6267.562)" d="M8661.355 6267.562H0V0H8661.355V6267.562Z" fill="#ffffff"/>
<path transform="matrix(1,0,0,-1,0,6267.562)" d="M7786.694 5715.43H874.68338V2259.4219H7786.694V5715.43Z" fill="#ffffff" fill-rule="evenodd"/>
<path transform="matrix(1,0,0,-1,0,6267.562)" d="M7786.694 5715.43H874.68338V2259.4219H7786.694V5715.43ZM7714.6936 5643.43V2331.422H946.6835V5643.43H7714.6936Z" fill="#424242" fill-rule="evenodd"/>
<path transform="matrix(1,0,0,-1,0,6267.562)" d="M874.65908 5924.3215H532.64169V343.24107H874.65908V5924.3215Z" fill="#7f7f7f" fill-rule="evenodd"/>
<path transform="matrix(1,0,0,-1,0,6267.562)" d="M8128.714 5924.3215H7786.6965V343.24107H8128.714V5924.3215Z" fill="#7f7f7f" fill-rule="evenodd"/>
<path transform="matrix(1,0,0,-1,0,6267.562)" d="M3777.6402 5158.2575 3608.7359 4847.1335V4618.6335H3447.837V4847.1335L3266.2823 5158.2575H3447.5345L3542.123 4980.378 3632.7955 5158.2575H3777.6402Z"/>
<path transform="matrix(1,0,0,-1,0,6267.562)" d="M4014.903 4610.3317C3938.9998 4610.3317 3877.1309 4635.5007 3829.2962 4685.8395 3781.4615 4736.1779 3757.544 4803.5158 3757.544 4887.852 3757.544 4968.4997 3780.4073 5035.1125 3826.1336 5087.691 3871.8599 5140.2697 3935.31 5166.559 4016.4844 5166.559 4091.5968 5166.559 4152.8068 5141.785 4200.1149 5092.2375 4247.4226 5042.6896 4271.076 4976.5378 4271.076 4893.782 4271.076 4808.1276 4247.2248 4739.472 4199.5217 4687.816 4151.8186 4636.1599 4090.279 4610.3317 4014.903 4610.3317ZM4014.1124 4732.8835C4042.0489 4732.8835 4062.1448 4745.0729 4074.4 4769.451 4086.6553 4793.83 4092.7828 4838.436 4092.7828 4903.27 4092.7828 4997.0949 4067.6136 5044.0075 4017.275 5044.0075 3962.9832 5044.0075 3935.8372 4990.506 3935.8372 4883.5036 3935.8372 4783.0905 3961.929 4732.8835 4014.1124 4732.8835Z"/>
<path transform="matrix(1,0,0,-1,0,6267.562)" d="M4778.678 5158.2575V4800.88C4778.678 4733.147 4758.5827 4684.4558 4718.3908 4654.8059 4678.1989 4625.1564 4625.818 4610.3317 4561.2478 4610.3317 4493.251 4610.3317 4438.6296 4624.5637 4397.384 4653.027 4356.1379 4681.4909 4335.5148 4727.876 4335.5148 4792.1828V5158.2575H4503.925V4811.5539C4503.925 4785.7258 4509.378 4766.882 4520.2849 4755.022 4531.191 4743.162 4548.605 4737.232 4572.527 4737.232 4592.499 4737.232 4608.859 4741.5148 4621.606 4750.08 4634.3537 4758.6457 4641.9758 4768.331 4644.4738 4779.1369 4646.971 4789.9426 4648.2199 4811.027 4648.2199 4842.3898V5158.2575H4778.678Z"/>
<path transform="matrix(1,0,0,-1,0,6267.562)" d="M5347.5568 4618.6335H5163.9265L5085.1076 4824.995H5032.8747V4618.6335H4867.232V5158.2575H5149.1018C5211.3 5158.2575 5259.5959 5143.696 5293.9895 5114.573 5328.383 5085.4509 5345.5798 5047.038 5345.5798 4999.335 5345.5798 4968.236 5339.2546 4940.7604 5326.604 4916.9089 5313.9538 4893.0578 5288.3889 4872.039 5249.91 4853.854L5347.5568 4618.6335ZM5032.8747 4940.431H5103.6389C5124.459 4940.431 5141.195 4944.78 5153.845 4953.477 5166.4958 4962.174 5172.8215 4974.9567 5172.8215 4991.8239 5172.8215 5026.349 5151.605 5043.612 5109.1735 5043.612H5032.8747V4940.431Z"/>
<path transform="matrix(1,0,0,-1,0,6267.562)" d="M2936.759 3713.4632V4253.087H3145.4927C3236.1549 4253.087 3304.0196 4226.2048 3349.087 4172.44 3394.1546 4118.6755 3416.6883 4056.4769 3416.6883 3985.8448 3416.6883 3905.1976 3392.5074 3839.639 3344.1456 3789.1688 3295.7835 3738.6983 3232.9923 3713.4632 3155.7713 3713.4632H2936.759ZM3102.4019 3837.5965H3145.4927C3172.902 3837.5965 3196.0289 3850.9058 3214.8729 3877.5247 3233.7169 3904.1434 3243.139 3940.3819 3243.139 3986.24 3243.139 4025.5093 3234.7713 4059.376 3218.0357 4087.8397 3201.3 4116.303 3177.119 4130.535 3145.4927 4130.535H3102.4019V3837.5965Z"/>
<path transform="matrix(1,0,0,-1,0,6267.562)" d="M3892.664 3842.3404V3713.4632H3486.6614V4253.087H3892.664V4128.5588H3649.1417V4050.2833H3846.0155V3930.4989H3649.1417V3842.3404H3892.664Z"/>
<path transform="matrix(1,0,0,-1,0,6267.562)" d="M3902.5474 3869.618 4056.3304 3897.291C4069.2445 3853.805 4102.452 3832.0618 4155.953 3832.0618 4197.594 3832.0618 4218.415 3843.131 4218.415 3865.2696 4218.415 3876.8658 4213.6057 3885.8924 4203.986 3892.3494 4194.3659 3898.8065 4177.167 3904.5325 4152.389 3909.5279 4057.7613 3927.6634 3997.0103 3951.3626 3970.1363 3980.6253 3943.2623 4009.8878 3929.825 4044.2916 3929.825 4083.837 3929.825 4134.715 3949.1304 4177.0266 3987.7408 4210.7717 4026.351 4244.5168 4081.8948 4261.3889 4154.372 4261.3889 4264.2736 4261.3889 4336.882 4217.2438 4372.198 4128.9538L4235.019 4087.444C4220.787 4123.551 4191.928 4141.6047 4148.442 4141.6047 4112.335 4141.6047 4094.2818 4130.4035 4094.2818 4108.0017 4094.2818 4097.9865 4098.3669 4090.2115 4106.537 4084.677 4114.707 4079.1424 4130.5227 4073.8795 4153.983 4068.8885 4218.5656 4055.2332 4264.4328 4043.153 4291.585 4032.648 4318.737 4022.1429 4341.3986 4004.1658 4359.5695 3978.7164 4377.7399 3953.267 4386.825 3923.2674 4386.825 3888.7174 4386.825 3834.125 4364.6867 3789.884 4320.41 3755.9949 4276.1335 3722.1058 4218.0197 3705.1612 4146.07 3705.1612 4014.5572 3705.1612 3933.383 3759.9803 3902.5474 3869.618Z"/>
<path transform="matrix(1,0,0,-1,0,6267.562)" d="M4615.7209 4253.087V3713.4632H4450.0778V4253.087H4615.7209Z"/>
<path transform="matrix(1,0,0,-1,0,6267.562)" d="M5175.9016 4015.8897V3713.4632H5094.859C5088.27 3735.865 5081.0227 3754.7093 5073.116 3769.995 5039.645 3726.7725 4990.097 3705.1612 4924.472 3705.1612 4854.8947 3705.1612 4797.7038 3729.4739 4752.9 3778.0994 4708.0959 3826.7249 4685.694 3892.547 4685.694 3975.5662 4685.694 4056.2132 4707.371 4124.012 4750.7258 4178.963 4794.0798 4233.9138 4858.584 4261.3889 4944.239 4261.3889 5008.5456 4261.3889 5060.3337 4245.049 5099.603 4212.368 5138.8728 4179.6877 5164.305 4133.3024 5175.9016 4073.2125L5015.398 4057.3992C5007.491 4113.536 4982.849 4141.6047 4941.4719 4141.6047 4887.1799 4141.6047 4860.0339 4089.948 4860.0339 3986.6353 4860.0339 3924.1734 4868.731 3882.9935 4886.1257 3863.0953 4903.52 3843.1968 4924.604 3833.2479 4949.378 3833.2479 4969.408 3833.2479 4986.473 3839.3096 5000.573 3851.4329 5014.6735 3863.5565 5021.855 3880.1602 5022.1188 3901.2445H4932.7746V4015.8897H5175.9016Z"/>
<path transform="matrix(1,0,0,-1,0,6267.562)" d="M5724.6179 3713.4632H5589.8107L5442.0197 3951.8897C5423.052 3982.4659 5403.924 4019.6124 5384.6354 4063.329 5393.3327 4028.5404 5397.681 3999.0223 5397.681 3974.7755V3713.4632H5263.269V4253.087H5419.8195L5545.5466 4055.4349C5570.588 4016.1656 5589.5598 3981.636 5602.4616 3951.8465 5594.028 3997.968 5589.8107 4045.144 5589.8107 4093.374V4253.087H5724.6179V3713.4632Z"/>
<path transform="matrix(1,0,0,-1,0,6267.562)" d="M3808.8546 3347.9168V2808.293H3643.2117V3018.2127H3516.7066V2808.293H3351.0638V3347.9168H3516.7066V3149.4617H3643.2117V3347.9168H3808.8546Z"/>
<path transform="matrix(1,0,0,-1,0,6267.562)" d="M4308.5505 2937.1702V2808.293H3902.5474V3347.9168H4308.5505V3223.3883H4065.0277V3145.113H4261.9016V3025.3287H4065.0277V2937.1702H4308.5505Z"/>
<path transform="matrix(1,0,0,-1,0,6267.562)" d="M4854.499 2808.293H4670.869L4592.0505 3014.6546H4539.8176V2808.293H4374.175V3347.9168H4656.044C4718.2429 3347.9168 4766.5388 3333.3555 4800.932 3304.233 4835.3259 3275.1104 4852.5227 3236.6978 4852.5227 3188.9947 4852.5227 3157.8956 4846.1975 3130.4202 4833.547 3106.5687 4820.896 3082.717 4795.3317 3061.6988 4756.853 3043.5137L4854.499 2808.293ZM4539.8176 3130.0906H4610.581C4631.402 3130.0906 4648.1379 3134.4393 4660.788 3143.1365 4673.4387 3151.8338 4679.7639 3164.616 4679.7639 3181.4835 4679.7639 3216.0089 4658.548 3233.2716 4616.1159 3233.2716H4539.8176V3130.0906Z"/>
<path transform="matrix(1,0,0,-1,0,6267.562)" d="M5338.777 2937.1702V2808.293H4932.7746V3347.9168H5338.777V3223.3883H5095.2546V3145.113H5292.128V3025.3287H5095.2546V2937.1702H5338.777Z"/>
</g>
</svg>
