<?xml version="1.0" encoding="UTF-8" standalone="no"?>
<svg
   xmlns:dc="http://purl.org/dc/elements/1.1/"
   xmlns:cc="http://creativecommons.org/ns#"
   xmlns:rdf="http://www.w3.org/1999/02/22-rdf-syntax-ns#"
   xmlns:svg="http://www.w3.org/2000/svg"
   xmlns="http://www.w3.org/2000/svg"
   viewBox="0 0 2643.2639 1235.9041"
   height="1235.9041"
   width="2643.2639"
   xml:space="preserve"
   id="svg2"
   version="1.1"><metadata
     id="metadata8"><rdf:RDF><cc:Work
         rdf:about=""><dc:format>image/svg+xml</dc:format><dc:type
           rdf:resource="http://purl.org/dc/dcmitype/StillImage" /></cc:Work></rdf:RDF></metadata><defs
     id="defs6" /><g
     transform="matrix(1.3333333,0,0,-1.3333333,0,1235.904)"
     id="g10"><path
       id="path12"
       style="fill:#000000;fill-opacity:1;fill-rule:evenodd;stroke:none"
       d="M 481.21564,73.106415 531.77851,342.72 h 62.91158 l -8.92331,-58.7636 c 0,0 87.19641,-26.07688 107.16187,-37.20346 37.68358,-21.00074 19.39961,-84.29964 8.10549,-140.03357 C 690.35618,54.026049 689.20389,34.024988 646.24102,13.69008 607.33216,-4.726011 521.52118,-7.964037 492.5609,25.441148 c -5.1163,5.901565 -14.68778,22.737654 -13.13319,36.432622 0.43976,3.873974 0.61855,4.997239 1.78793,11.232645 z m 518.85016,-2.729348 c 3.2273,-8.905035 15.4462,-13.072283 20.61,-13.599736 9.3255,-0.952543 24.8161,0 24.8161,0 l -9.317,-50.921297 c 0,0 -19.6159,-0.861209 -33.6683,0 -26.96241,1.652393 -55.24162,14.597868 -66.4132,39.170228 -1.08847,2.394127 -2.01361,4.864682 -2.37569,7.464895 -0.48806,3.505025 -0.41582,4.587944 0.72241,10.82919 L 985.0376,340.76149 h 64.6408 l -11.4558,-60.71386 h 49.0271 l -9.4593,-47.00427 h -49.9558 c 0,0 -27.2859,-153.657343 -27.2859,-153.657343 -1.10922,-6.246535 -1.15751,-7.14743 -0.4829,-9.00895 z M 265.53409,223.26216 263.98604,195.83164 h -64.1955 c 0,0 0.75195,10.62445 0,16.99988 -2.56562,21.75275 -48.36518,20.53553 -68.08613,11.39854 -11.75659,-5.447 -24.14726,-26.53099 -14.58988,-38.19097 1.41631,-1.7279 3.46046,-3.60745 5.57976,-4.90756 2.85675,-1.75251 3.83998,-2.16582 9.83227,-4.13308 l 85.73712,-28.14737 c 5.99229,-1.96726 18.52256,-8.6887 21.75822,-14.13988 6.49929,-10.94949 6.70688,-17.21854 6.45627,-27.79598 -0.11399,-4.81123 -5.1349,-36.487366 -9.72659,-47.200122 -2.74589,-6.406386 -5.98082,-13.79902 -5.98082,-13.79902 0,0 -8.3758,23.524241 -15.41767,37.301157 -7.979,15.610339 -18.03478,19.887185 -24.12318,22.330475 -29.57129,11.86707 -113.86071,32.84834 -132.47492,55.03073 -23.097546,27.52513 -1.86105,83.42513 30.152429,102.82185 27.186371,16.47201 92.454401,22.34403 126.445671,13.70958 26.08046,-6.62496 43.21361,-16.87263 48.88892,-39.94161 1.52041,-6.18013 1.64962,-7.57075 1.29208,-13.9061 z M 941.6181,195.83164 h -62.91158 c 0,0 0.53585,11.97899 0,18.95839 -0.85575,11.14587 -7.01033,12.77784 -19.41428,14.33631 -29.66272,3.72691 -71.29352,-4.40074 -64.2344,-37.21172 0.45377,-2.10912 1.17446,-4.16758 2.26191,-6.02754 1.46586,-2.50719 2.28853,-3.02209 8.22675,-5.14906 l 87.96049,-31.50587 c 5.93822,-2.12696 7.05863,-2.71147 11.20411,-5.84509 11.88967,-8.98756 20.51763,-29.60445 21.22972,-36.54685 C 926.99361,96.576151 916.02103,52.705969 904.96831,37.192217 881.03129,3.593906 812.14652,-2.12308 776.18826,1.939011 c -52.84582,5.969826 -77.94544,27.512227 -67.69707,76.381946 0.56472,2.692854 1.12767,5.493797 2.35846,7.998959 1.65909,3.376898 2.54375,3.752109 8.84657,3.752109 h 53.96313 V 70.996124 c 0,-6.345577 0.17094,-7.279092 1.70942,-9.33515 11.28523,-15.081773 57.39794,-8.991402 66.3767,-3.904387 9.70556,5.498784 17.44819,23.017412 15.56255,33.882248 -5.44564,31.377095 -70.24925,27.224705 -105.04717,47.395975 -16.31483,9.45719 -25.48197,29.07239 -23.34382,48.57108 6.76587,61.70074 34.52729,84.87086 93.95886,92.44174 43.75994,5.57451 132.33002,-3.43044 123.91675,-61.49726 -1.35835,-9.3751 -5.17454,-22.71873 -5.17454,-22.71873 z m 173.3072,-46.81802 102.4039,32.92219 c 6.0041,1.93029 6.96,2.37582 9.5586,4.45536 7.7119,6.17161 11.356,18.91656 9.7572,27.45878 -3.4127,18.2342 -48.886,20.77161 -70.0314,10.38011 -4.2762,-2.10143 -7.0995,-4.80879 -10.6993,-12.73033 -2.8262,-6.21929 -6.1472,-15.66809 -6.1472,-15.66809 h -62.9116 c 0,0 3.2372,21.8959 6.8087,33.2947 9.7717,31.188 55.0811,47.05413 85.2049,50.92129 35.6593,4.5778 106.5116,3.28877 120.9988,-41.12874 0.9492,-2.91038 1.641,-5.99632 1.5915,-9.09195 -0.067,-4.17285 -0.1946,-5.33109 -1.2789,-11.58237 -9.5812,-55.23499 -26.3871,-156.135068 -30.4651,-165.384262 -20.4939,-46.482064 -81.3435,-55.61804 -137.534,-50.921297 -65.6511,5.487523 -86.6574,45.045244 -57.8387,110.204149 3.642,8.23439 16.2042,25.81303 29.0615,32.28461 4.3649,2.19698 5.517,2.65556 11.5211,4.58585 z M 1490.1978,5.856034 h -65.6138 l 36.3771,187.755816 c 1.2067,6.2282 1.3991,7.50327 1.9238,12.75075 1.6321,16.32232 -5.0794,19.32092 -19.9973,22.76374 -22.0797,5.09566 -51.8258,-2.26255 -59.3711,-13.70958 -5.7201,-8.67809 -41.1629,-209.560726 -41.1629,-209.560726 h -65.7477 l 41.3793,214.390606 c 1.2023,6.22907 1.6088,7.53666 4.0651,13.0759 20.651,46.56883 99.3954,51.35984 139.668,46.72509 34.9403,-4.02108 61.1213,-17.6322 66.7244,-45.00659 1.3796,-6.74026 -11.1501,-92.951 -18.3767,-126.44028 C 1500.2388,63.059032 1490.1978,5.856034 1490.1978,5.856034 Z m 260.6726,189.975606 h -60.9663 c 0,0 0.994,13.19893 0,18.95839 -1.5563,9.01786 -12.5402,13.33952 -21.3596,14.33631 -30.8033,3.48146 -51.9536,-0.29552 -61.3164,-21.54363 -6.9848,-15.85131 -10.7579,-59.05281 -17.8321,-94.9878 -8.4469,-42.908307 -15.4257,-53.664979 12.9299,-59.734602 19.3235,-4.136283 51.7546,0.461013 58.3984,13.70958 3.9277,7.832061 7.7813,23.502137 7.7813,23.502137 h 62.2502 c 0,0 -1.9379,-19.483482 -4.8633,-31.336183 C 1712.2456,3.443224 1616.2627,-7.899014 1561.5131,6.83529 c -30.2043,8.128655 -47.5583,24.065447 -45.2514,56.013427 0.4582,6.345577 0.6401,7.743268 1.8187,13.976911 l 26.5606,140.478162 c 1.1786,6.23364 1.5874,7.57568 4.0881,13.42035 22.3738,52.29402 117.7283,59.09941 164.5188,44.42722 22.6945,-7.11636 47.0793,-29.24229 42.797,-56.20928 -1.308,-8.23709 -5.1745,-23.11044 -5.1745,-23.11044 z M 1892.2172,86.155003 h 64.1955 c 0,0 0.134,-5.016743 0,-9.400855 -0.8569,-28.036645 -24.0607,-51.951744 -44.7423,-62.084813 -37.1783,-18.2156 -139.2533,-25.165004 -164.3794,20.56437 -1.7802,3.239963 -3.0904,6.657024 -3.8002,10.249014 -0.9568,4.841917 -0.9512,6.075945 0.056,12.340286 8.7784,54.589565 23.3466,149.808925 28.0605,163.469285 12.6475,36.65153 41.9811,54.13959 89.4068,58.75534 83.1569,8.09334 143.246,-14.54581 113.8789,-99.88408 -8.1624,-23.71931 -27.001,-42.06741 -52.5236,-50.9213 -54.3284,-18.84674 -107.6985,-15.3206 -113.8011,-50.529591 -2.9863,-17.229479 4.3422,-22.745299 23.3049,-25.852351 19.5347,-3.200777 49.2491,0.34385 55.4805,15.668092 2.6757,6.58002 4.8633,17.626603 4.8633,17.626603 z M 440.34856,278.08912 h 64.37058 c 0,0 -40.72421,-221.059795 -47.17397,-233.062858 C 437.81339,8.305196 355.55467,-10.509971 299.00176,6.83529 c -23.17313,7.107397 -34.78715,15.126534 -42.797,35.253205 -1.3862,3.483171 -2.67646,7.178322 -3.16256,10.969343 -0.65526,5.110204 -0.60103,6.371371 0.54233,12.611666 L 292.5044,278.08912 h 64.35256 c 0,0 -38.42174,-199.129559 -36.4567,-210.892508 2.07724,-12.4346 19.47969,-17.271922 45.44263,-14.336304 32.70635,3.698094 36.8319,14.493975 44.04199,51.900552 11.25468,58.3902 30.46368,173.32826 30.46368,173.32826 z M 1822.1336,155.15298 c 14.9379,0.23137 70.809,17.29908 82.7281,28.92759 10.8532,10.58856 17.0857,33.62426 2.918,41.12874 -19.2589,10.20132 -58.1251,5.67234 -69.0588,-7.83404 -4.7361,-5.85054 -8.247,-17.42022 -9.7266,-25.46065 l -3.4414,-17.62413 z M 629.72384,79.370669 l 23.0299,121.292211 -77.66852,27.1871 c 0,0 -30.60189,-145.617325 -29.02808,-158.929878 2.01038,-17.005309 23.98088,-18.056712 49.33327,-16.059794 13.89804,1.0947 19.88074,3.512335 28.68492,14.283374 3.90025,4.771566 4.4651,5.994265 5.64851,12.226987 z m 502.84666,10.701356 c -7.559,-13.106576 -5.5836,-27.475577 0.9727,-32.315438 12.1799,-8.991233 46.1174,-7.647632 62.2501,0 17.016,8.066289 17.665,21.613958 22.7603,51.108393 1.4819,8.57842 2.0728,13.66567 -0.2945,15.36165 -2.4244,1.73684 -67.5097,-17.35312 -73.044,-21.42428 -5.7219,-4.20919 -10.3998,-8.83804 -12.6446,-12.730325 z" /><path
       id="path14"
       style="fill:#8cc540;fill-opacity:1;fill-rule:evenodd;stroke:none"
       d="m 28.614948,142.41253 c -0.30853,0.62197 -0.597162,1.25481 -0.865403,1.89746 -0.793216,1.88068 -1.431795,3.49992 -2.119419,5.3581 -0.624297,1.68705 -1.296206,3.61858 -1.803846,5.38986 -0.111865,0.39054 -0.215021,0.78384 -0.309382,1.17956 -0.12237,0.47895 -0.205576,0.96821 -0.248694,1.46233 -0.02305,0.47877 -0.03846,0.95792 -0.04624,1.43725 -0.01,0.51239 -0.02581,1.02462 -0.04746,1.53659 -0.03602,0.87954 -0.10313,1.70368 -0.282711,2.55292 -0.127319,0.6021 -0.460633,1.67111 -1.267159,1.52513 -0.262071,-0.0474 -0.476304,-0.14918 -0.657423,-0.35178 -0.0764,-0.0819 -0.14895,-0.16788 -0.2173,-0.25755 -0.332869,-0.4371 -0.720118,-1.08027 -1.00746,-1.60034 -0.355104,-0.64229 -0.693251,-1.29497 -1.014046,-1.95727 -0.539096,-1.10746 -1.043112,-2.23375 -1.511201,-3.37697 -1.810564,-4.43327 -3.701041,-8.82934 -5.670392,-13.18578 -0.835262,-1.84245 -1.65778,-3.69138 -2.467487,-5.54663 -0.62486,-1.43516 -1.212741,-2.88812 -1.762988,-4.35725 -0.600204,-1.61532 -1.138011,-3.25593 -1.612082,-4.91775 -0.482598,-1.70057 -0.916021,-3.41639 -1.299661,-5.14507 -0.411089,-1.84686 -0.790039,-3.70161 -1.136656,-5.5633 -0.438863,-2.3815 -0.831376,-4.77235 -1.17729,-7.17101 C 1.210917,105.26451 0.404005,98.443987 0.08971,92.237839 0.007066,90.661121 -0.018491,89.081606 0.013096,87.502795 0.093703,84.336067 0.318068,81.175315 0.685413,78.031507 1.093825,74.521493 1.709833,71.042176 2.529794,67.614136 3.353475,64.168577 4.416122,60.792301 5.70905,57.512901 7.147491,53.862594 8.907235,50.364285 10.964916,47.064424 14.811609,40.903395 19.734665,35.58038 25.468301,31.382756 c 2.985826,-2.184611 6.153114,-4.076095 9.462581,-5.650993 3.613043,-1.716386 7.357101,-3.103893 11.191741,-4.147534 3.700677,-1.01487 7.168785,-1.649006 10.895797,-1.928872 4.110298,-0.312439 8.241332,-0.07506 12.295758,0.706532 8.586331,1.663831 16.365669,5.788392 23.369448,11.163299 8.947704,6.866732 14.720784,17.686859 15.608474,29.377654 0.32975,4.353464 -0.0413,8.734703 -1.0972,12.956144 -1.37083,5.46254 -4.2088,10.659677 -7.523987,15.082699 -1.810306,2.412335 -3.786482,4.679216 -5.912331,6.782066 -2.39931,2.388652 -4.98194,4.561309 -7.721126,6.495439 -0.505368,0.35356 -1.022037,0.6886 -1.549095,1.00452 -1.553754,0.9384 -3.452239,1.98615 -5.116657,2.86203 -2.249522,1.18267 -4.508142,2.34576 -6.775635,3.48917 -3.402569,1.71311 -6.796628,3.44517 -10.182036,5.19612 -1.815933,0.94307 -3.621995,1.9074 -5.417854,2.89279 -2.05308,1.11886 -4.075253,2.30039 -6.063995,3.54311 -2.011682,1.28181 -3.97604,2.64544 -5.888669,4.08784 -2.032464,1.52443 -4.008319,3.13203 -5.923102,4.81918 -1.887161,1.65498 -3.688962,3.41651 -5.397588,5.27694 -0.913476,0.99884 -1.783435,2.04145 -2.60715,3.12456 -0.949692,1.25107 -1.777662,2.50919 -2.500727,3.89708 z" /><path
       id="path16"
       style="fill:#000000;fill-opacity:1;fill-rule:evenodd;stroke:none"
       d="m 1330.8476,448.13478 c 2.8376,2.74067 6.1931,7.18015 7.6749,9.17918 1.9237,2.57939 3.7182,5.2519 5.3769,8.00771 1.011,1.69585 2.0579,3.37031 3.1398,5.02227 1.2249,1.84596 2.4784,3.673 3.76,5.48046 1.89,2.63173 3.7234,5.30335 5.499,8.01298 4.3629,6.80114 8.3402,13.83992 11.9134,21.08334 3.9703,8.06265 7.4918,16.33674 10.5486,24.78474 3.0829,8.53054 5.7822,17.19372 8.0898,25.96371 2.5579,9.75281 4.7804,19.58978 6.6636,29.49368 2.2401,11.64298 3.6847,23.42377 4.324,35.26133 0.7074,13.0541 0.4819,26.14175 -0.6749,39.16401 -2.4115,27.38641 -8.8696,54.26858 -19.1656,79.7776 -7.3659,18.22419 -16.5103,35.68479 -27.3018,52.13082 -11.9877,18.25497 -25.9857,35.12002 -41.7337,50.28157 -15.7674,15.16687 -33.175,28.54691 -51.9038,39.895 -20.6386,12.49125 -42.6798,22.52542 -65.6703,29.8962 -5.877,1.88761 -11.8303,3.53107 -17.8444,4.92614 -6.6806,1.54437 -13.4195,2.82696 -20.2012,3.84481 -6.8008,1.01813 -13.6291,1.84433 -20.4768,2.47761 -7.5544,0.6947 -15.1197,1.26579 -22.6929,1.71303 -4.4881,0.25068 -8.9789,0.45195 -13.4716,0.60378 -26.202,0.91969 -52.3838,1.41607 -78.5915,1.66028 -23.34175,0.22562 -46.68546,0.16412 -70.02574,-0.18449 -17.21196,-0.25091 -34.41898,-0.76789 -51.61482,-1.55075 -9.50891,-0.43791 -19.01042,-1.02261 -28.50111,-1.75391 -5.16146,-0.40103 -10.31714,-0.87257 -15.46559,-1.41447 -5.88234,-0.60852 -11.74715,-1.37484 -17.58801,-2.29812 -3.39269,-0.5565 -6.76552,-1.22673 -10.11279,-2.00954 -10.98917,-2.56452 -21.85424,-6.06513 -32.35379,-10.23491 -10.52263,-4.17895 -20.87263,-9.17911 -30.47185,-15.22726 -3.73974,-2.35089 -7.33258,-4.92581 -10.75866,-7.71051 -6.65172,-5.42315 -12.67691,-11.56602 -17.96448,-18.31532 -2.78191,-3.56638 -5.31131,-7.32105 -7.56988,-11.23685 -7.10899,-12.31242 -11.16605,-26.26021 -10.15228,-40.54016 0.3396,-4.73133 1.23081,-9.40726 2.65566,-13.93356 1.5644,-4.9376 3.70263,-9.67641 6.37124,-14.12016 2.37879,-3.94461 5.13446,-7.65139 8.22871,-11.06879 3.38901,-3.74575 7.06023,-7.22854 10.98166,-10.41802 3.90978,-3.18806 7.99331,-6.15889 12.23196,-8.89892 4.65837,-3.01418 9.45164,-5.81651 14.36504,-8.39834 9.99709,-5.2575 20.55536,-9.84174 31.20214,-13.77283 12.71308,-4.70049 25.71501,-8.58704 38.92623,-11.63587 3.54532,-0.7868 7.10624,-1.50193 10.68062,-2.14496 10.00129,-1.81201 22.59972,-3.82931 33.16791,-5.42647 13.94807,-2.10641 27.9046,-4.15687 41.86926,-6.15133 l 46.82037,-6.7244 c 17.62704,-2.52689 35.2363,-5.17498 52.8266,-7.9441 11.3478,-1.79684 22.6723,-3.73599 33.971,-5.81697 24.2885,-4.47391 48.2819,-9.78907 72.0777,-16.39615 12.9477,-3.59126 25.7611,-7.64668 38.4149,-12.15834 10.9353,-3.8994 21.7048,-8.24498 32.2813,-13.02572 5.5644,-2.52362 11.0602,-5.19466 16.4814,-8.01028 11.4216,-5.92988 22.4419,-12.55672 32.9005,-20.04685 5.4865,-3.92767 10.7797,-8.11621 15.8612,-12.55105 5.0854,-4.4373 9.9134,-9.15879 14.4605,-14.14161 5.0383,-5.51838 9.6647,-11.39595 13.8424,-17.58576 3.2832,-4.84153 6.3901,-9.79924 9.3147,-14.86351 4.9959,-8.67611 8.7775,-17.09579 11.8797,-26.6065 1.0495,-3.22296 2.0333,-6.46675 2.9509,-9.72938 0.8495,-3.00913 1.6822,-6.02292 2.4981,-9.04126 1.0249,-3.78739 2.0625,-7.57135 3.1129,-11.35182 0.6065,-2.2685 1.1093,-5.71407 1.4294,-8.03596 0.9575,-6.94598 1.7559,-15.49163 2.1949,-22.56806 0.1289,-2.00282 0.2035,-4.00872 0.2237,-6.01553 l -0.016,-1.33836 c -0.01,-0.56161 -0.056,-1.12187 -0.1504,-1.67554 -0.3998,-1.92728 -0.7122,-3.87151 -0.9362,-5.82679 -0.1586,-1.3505 -0.2751,-2.70559 -0.3493,-4.06331 -0.034,-0.61423 -0.2759,-5.06121 0.4535,-5.93021 0.1915,-0.22814 0.5858,-0.003 0.7825,0.14094 0.4705,0.32194 0.9095,0.68753 1.311,1.09181 z" /><path
       id="path18"
       style="fill:#8cc540;fill-opacity:1;fill-rule:evenodd;stroke:none"
       d="m 670.01719,748.00748 c -0.82273,1.55673 -1.59241,3.14069 -2.3077,4.74917 -2.11521,4.70716 -3.81806,8.75999 -5.65169,13.41083 -1.66476,4.22252 -3.45649,9.05697 -4.81017,13.49031 -0.2983,0.97751 -0.57338,1.9619 -0.825,2.95234 -0.32632,1.19878 -0.5482,2.42335 -0.66318,3.66009 -0.0615,1.19832 -0.10256,2.39759 -0.1233,3.59729 -0.0266,1.28246 -0.0688,2.56453 -0.12656,3.84595 -0.096,2.20141 -0.275,4.26415 -0.75388,6.38973 -0.33951,1.50698 -1.22834,4.18263 -3.37903,3.81725 -0.69885,-0.11872 -1.27013,-0.37338 -1.7531,-0.88047 -0.20374,-0.20499 -0.39719,-0.4202 -0.57945,-0.64464 -0.88764,-1.094 -1.92029,-2.70381 -2.68652,-4.00548 -0.94693,-1.60761 -1.84863,-3.24121 -2.70407,-4.89888 -1.43757,-2.77187 -2.78159,-5.59087 -4.0298,-8.45225 -4.82809,-11.09606 -9.86927,-22.099 -15.12078,-33.00278 -2.22733,-4.61149 -4.42067,-9.23918 -6.57985,-13.88269 -1.66627,-3.5921 -3.23392,-7.22871 -4.70122,-10.9058 -1.60052,-4.04299 -3.03464,-8.1493 -4.29881,-12.30869 -1.28691,-4.25635 -2.44268,-8.5509 -3.4657,-12.87762 -1.09622,-4.62254 -2.10674,-9.2648 -3.03103,-13.92444 -1.17028,-5.96068 -2.21696,-11.94474 -3.13939,-17.94838 -2.34591,-15.15891 -4.49763,-32.23004 -5.33574,-47.76346 -0.22038,-3.94638 -0.28853,-7.89976 -0.2043,-11.85137 0.21495,-7.92603 0.81325,-15.8371 1.79282,-23.70577 1.08908,-8.78523 2.73173,-17.49364 4.91826,-26.07371 2.19644,-8.62392 5.03012,-17.07442 8.47787,-25.28246 3.83577,-9.13638 8.52834,-17.89233 14.01539,-26.15157 10.25767,-15.42049 23.38559,-28.74351 38.67502,-39.24977 7.96206,-5.46788 16.40801,-10.20209 25.2331,-14.14392 9.63461,-4.29595 19.6186,-7.76875 29.84412,-10.38089 9.8683,-2.54013 19.11643,-4.12731 29.05495,-4.82779 10.9606,-0.78201 21.9765,-0.18788 32.78811,1.76838 22.89648,4.16442 43.64102,14.48782 62.31743,27.94071 23.86013,17.1868 39.25474,44.26858 41.62187,73.52956 0.87932,10.89632 -0.11007,21.86215 -2.92582,32.42803 -3.65546,13.67223 -11.22326,26.68019 -20.06361,37.75061 -4.82739,6.03785 -10.0971,11.71164 -15.76594,16.97488 -6.39804,5.97858 -13.28494,11.41652 -20.5893,16.25748 -1.34763,0.88493 -2.72539,1.72349 -4.13085,2.51422 -4.14327,2.34873 -9.20581,4.97115 -13.64418,7.1634 -5.99862,2.96011 -12.0215,5.87123 -18.06804,8.73306 -9.07336,4.28777 -18.12402,8.62297 -27.15162,13.00541 -4.8424,2.36044 -9.65849,4.77405 -14.44736,7.24039 -5.47478,2.8004 -10.86715,5.75766 -16.17037,8.86809 -5.36439,3.20825 -10.60258,6.62129 -15.70284,10.23147 -5.41981,3.81552 -10.68866,7.8392 -15.79466,12.06196 -5.03234,4.14228 -9.83706,8.55123 -14.39332,13.20771 -2.43589,2.5 -4.75574,5.10955 -6.95227,7.82048 -2.53247,3.13131 -4.74035,6.28028 -6.66849,9.75403 z" /></g></svg>