<?xml version="1.0" encoding="iso-8859-1"?>
<!-- Uploaded to: SVG Repo, www.svgrepo.com, Generator: SVG Repo Mixer Tools -->
<svg fill="#000000" height="800px" width="800px" version="1.1" id="Layer_1" xmlns="http://www.w3.org/2000/svg" xmlns:xlink="http://www.w3.org/1999/xlink" 
	 viewBox="0 0 324.908 324.908" xml:space="preserve">
<path id="XMLID_811_" d="M321.354,135.798c0.147-0.175,0.295-0.349,0.433-0.529c0.06-0.079,0.113-0.161,0.172-0.24
	c0.136-0.187,0.273-0.372,0.4-0.563c0.046-0.068,0.085-0.139,0.129-0.207c0.133-0.207,0.266-0.415,0.388-0.627
	c0.043-0.075,0.08-0.153,0.122-0.228c0.115-0.21,0.232-0.42,0.336-0.634c0.041-0.082,0.074-0.167,0.113-0.25
	c0.1-0.211,0.199-0.422,0.288-0.638c0.03-0.073,0.055-0.149,0.083-0.223c0.09-0.228,0.18-0.456,0.258-0.687
	c0.023-0.067,0.041-0.136,0.063-0.204c0.077-0.24,0.154-0.481,0.22-0.726c0.017-0.064,0.028-0.13,0.045-0.194
	c0.064-0.249,0.125-0.5,0.176-0.752c0.011-0.056,0.018-0.113,0.028-0.169c0.049-0.262,0.096-0.525,0.131-0.79
	c0.009-0.063,0.012-0.127,0.02-0.19c0.031-0.259,0.06-0.518,0.078-0.778c0.005-0.082,0.004-0.165,0.008-0.247
	c0.013-0.243,0.025-0.485,0.025-0.728c0-0.101-0.007-0.202-0.009-0.302c-0.004-0.226-0.007-0.452-0.02-0.678
	c-0.008-0.107-0.022-0.214-0.031-0.321c-0.019-0.22-0.035-0.439-0.064-0.659c-0.018-0.138-0.045-0.275-0.066-0.414
	c-0.03-0.188-0.056-0.376-0.093-0.563c-0.033-0.168-0.077-0.335-0.116-0.502c-0.036-0.154-0.066-0.309-0.107-0.463
	c-0.001-0.004-0.002-0.007-0.003-0.011c-0.001-0.003-0.001-0.005-0.002-0.008c-0.002-0.007-0.005-0.014-0.007-0.021
	c-7.447-27.866-22.217-53.428-42.714-73.925C250.471,17.163,209.035,0,164.962,0C120.889,0,79.453,17.163,48.289,48.328
	c-64.333,64.334-64.333,169.011,0,233.344c20.495,20.496,46.058,35.266,73.924,42.716c0.007,0.002,0.014,0.005,0.021,0.006
	c0.002,0,0.005,0.001,0.008,0.002c0.004,0.001,0.007,0.002,0.011,0.003c0.157,0.042,0.315,0.073,0.474,0.11
	c0.161,0.038,0.322,0.08,0.483,0.112c0.165,0.033,0.332,0.055,0.497,0.082c0.158,0.025,0.314,0.057,0.473,0.077
	c0.206,0.027,0.412,0.043,0.619,0.061c0.117,0.01,0.234,0.027,0.352,0.034c0.324,0.021,0.648,0.032,0.972,0.032
	c3.927,0,7.758-1.544,10.607-4.394l183.746-183.746c0.237-0.237,0.465-0.48,0.683-0.73
	C321.226,135.96,321.287,135.877,321.354,135.798z M69.502,69.54C95,44.042,128.902,30,164.962,30
	c36.059,0,69.962,14.042,95.46,39.54c10.892,10.893,19.798,23.53,26.378,37.288c-5.239-0.501-10.505-0.758-15.779-0.758
	c-44.07,0-85.503,17.162-116.665,48.324c-20.844,20.843-35.736,46.869-43.07,75.265c-4.824,18.679-6.312,38.066-4.487,57.183
	c-13.762-6.58-26.402-15.488-37.296-26.382C16.866,207.823,16.866,122.177,69.502,69.54z M136.257,278.56
	c-2.039-37.906,11.973-75.614,39.312-102.954c25.496-25.496,59.395-39.537,95.452-39.537c2.51,0,5.017,0.069,7.518,0.208
	L136.257,278.56z"/>
</svg>