<svg xmlns="http://www.w3.org/2000/svg" xmlns:xlink="http://www.w3.org/1999/xlink" version="1.1" width="1066.6653" height="1064.2518" viewBox="0 0 1066.6653 1064.2518">
<g id="layer_1" data-name="Layer 1">
<path transform="matrix(1,0,0,-1,0,1064.2518)" d="M1042.7418 222.48979 878.01797 387.23469C845.2111 419.90989 790.87008 418.90953 756.9154 384.9549L673.9322 301.9717C668.6934 304.87278 663.26516 307.88969 657.55776 311.09086 605.15426 340.12788 533.42257 379.92677 457.93687 455.4651 382.24055 531.1561 342.38905 603.00369 313.27305 655.44406 310.1824 661.00399 307.2445 666.35336 304.3434 671.4394L360.0429 727.0651 387.4214 754.4805C421.43394 788.49307 422.37638 842.8183 389.62748 875.583L224.89836 1040.349C192.17052 1073.0768 137.8084 1072.0818 103.79586 1038.0692L57.368234 991.3783 58.64765 990.1147C43.084024 970.25479 30.063437 947.34109 20.396718 922.6372 11.467112 899.1233 5.907169 876.67819 3.364126 854.2015-18.380726 673.8719 64.01805 509.0743 287.6478 285.42353 596.76699-23.674574 845.8903-.329132 856.6311 .81866 880.05557 3.609161 902.4743 9.20596 925.27749 18.061854 949.7707 27.633803 972.6686 40.617536 992.50747 56.144308L993.5236 55.25977 1040.5568 101.313579C1074.4956 135.32085 1075.4749 189.64612 1042.7418 222.48979ZM1003.9643 137.93759 983.23568 117.24576 974.98 109.31126C961.9804 96.74347 939.4774 79.0896 906.6179 66.237499 887.9637 59.055906 869.5727 54.44368 850.86056 52.21654 848.5071 51.990144 614.1944 31.998568 324.19813 321.97383 77.62306 568.5383 38.108507 710.617 54.6725 848.2256 56.74695 866.46389 61.32232 884.818 68.635547 903.9988 81.59821 937.0478 99.23629 959.5297 111.709308 972.5503L140.36724 1001.49258C154.17758 1015.3398 175.7171 1016.3981 188.34279 1003.77236L353.06666 839.0485C365.6713 826.40707 364.67619 804.8675 350.8448 790.97817L239.59853 679.84249 249.86547 662.56246C255.57283 652.93258 261.60664 642.1391 268.05113 630.41378 298.65187 575.22506 340.5199 499.6814 421.376 418.899 502.0215 338.21138 577.4546 296.3802 632.47488 265.8584 644.3634 259.2823 655.22006 253.2327 664.9605 247.43058L682.2774 237.16362 793.44998 348.37303C807.3182 362.18336 828.9314 363.20478 841.5571 350.61595L1006.2073 185.92896C1018.7961 173.30852 1017.7957 151.76902 1003.9643 137.93759Z" fill="#37b1e2"/>
</g>
</svg>
