<svg xmlns="http://www.w3.org/2000/svg" viewBox="0 0 36 44"><title>sign@1x</title><g id="Layer_2" data-name="Layer 2"><g id="Location"><g id="Sign_Post_2x.png" data-name="Sign Post@2x.png"><path d="M29,18H23a1,1,0,0,0,0,2h6a1,1,0,0,0,0-2ZM16,15a1,1,0,0,0,1,1H29a1,1,0,0,0,0-2H17A1,1,0,0,0,16,15ZM34,4H21V2a2,2,0,0,0-2-2H17a2,2,0,0,0-2,2V4H2A2,2,0,0,0,0,6V28a2,2,0,0,0,2,2H15V42a2,2,0,0,0,2,2h2a2,2,0,0,0,2-2V30H34a2,2,0,0,0,2-2V6A2,2,0,0,0,34,4ZM17,2h2V4H17Zm2,40H17V30h2ZM34,28H2V6H34ZM7,16h6a1,1,0,0,0,0-2H7a1,1,0,0,0,0,2Zm0-4H25a1,1,0,0,0,0-2H7a1,1,0,0,0,0,2Zm0,8H19a1,1,0,0,0,0-2H7a1,1,0,0,0,0,2Zm0,4H27a1,1,0,0,0,0-2H7a1,1,0,0,0,0,2Z"/></g></g></g></svg>