<svg xmlns="http://www.w3.org/2000/svg" width="1527.924" height="772.696" viewBox="0 0 1145.943 579.522"><g data-name="Layer"><path d="M243.232 83.558H182.12V0h62.182s-1.24 41.818-1.162 70.1c.02 6.78.092 13.458.092 13.458zM316.217 375.695h-62.723V0h134.098v83.558h-71.375v292.137zM481.677 375.695h-62.723V0h62.723v375.695zM900.463 203.133v116.44l-36.407 56.122H838.01V228.998H720.17l-36.265-55.807-.54-114.663L720.04 0h26.317v145.755h117.968l36.137 57.378z" fill-rule="evenodd"/><path d="M900.463 56.957v55.5H854.68l-18.563-28.9h-80.026V0h108.114l36.258 56.957zM635.781 59.238v85.078c0 1.018-.014 1.217-.147 1.994-.099.576-.296 1.09-.529 1.644-1.501 3.585-23.926 39.517-23.926 39.517s22.413 36.027 23.927 39.642c.231.555.43 1.068.528 1.644.133.777.147.976.147 1.994v86.542c0 1.018-.016 1.21-.163 1.929-.11.533-.328 1.012-.558 1.501-1.093 2.326-23.154 36.103-34.828 54.07-.528.812-.684.902-1.56.902H491.41v-82.3l81.378-.315v-64.082H491.41v-83.243h81.378V83.558H491.41L491.227.942h107.319c.876 0 1.032.09 1.56.902 11.777 18.072 34.28 52.435 35.135 54.385.175.4.343.795.422 1.229.107.584.118.762.118 1.78zM720.242 374.814c-13.731-19.831-22.347-33.3-36.3-55.273-.52-.819-.577-1.023-.577-2.04v-54.577h46.666l18.76 30.156h80.026v82.615H721.827c-.876 0-1.035-.088-1.584-.88zM930.974 348.914v-5.716h-25.722v5.716h9.574v25.15h6.573v-25.15h9.575zM949.97 363.606s-.507-1.76-1.063-3.546c-1.951-6.272-6.073-16.862-6.073-16.862h-8.717v30.866h6.574v-19.929l7.144 19.929h4.479l7.096-19.712v19.712h6.573v-30.866h-8.622l-7.39 20.408z" fill-rule="evenodd"/><path d="M61.02 404.552v20.27H50.098v-12.741h-10.59v40.873h8.19v9.93h-32.02v-9.93h8.109v-40.873H13.114v12.742H2.192v-20.271l2.896-2.896h53.036l2.896 2.896z" fill="#ff7f00"/><path stroke-width="4.384" fill="none" stroke="#000" d="M61.02 404.552v20.27H50.098v-12.741h-10.59v40.873h8.19v9.93h-32.02v-9.93h8.109v-40.873H13.114v12.742H2.192v-20.271l2.896-2.896h53.036l2.896 2.896z"/><path d="M125.722 409.93v18.037l-6.453 6.454 6.453 6.453v12.08h5.047v9.93h-16.465l-4.302-4.303v-16.217l-3.227-3.31H88.82v13.9h4.717v9.93H67.474v-9.93H73.1v-41.37h-5.626v-9.928h49.974l8.274 8.274zm-36.902 1.654v17.624h18.038l3.144-3.144v-11.915l-2.565-2.565H88.82z" fill="#ff7f00"/><path stroke-width="4.384" fill="none" stroke="#000" d="M125.722 409.93v18.037l-6.453 6.454 6.453 6.453v12.08h5.047v9.93h-16.465l-4.302-4.303v-16.217l-3.227-3.31H88.82v13.9h4.717v9.93H67.474v-9.93H73.1v-41.37h-5.626v-9.928h49.974l8.274 8.274zm-36.902 1.654v17.624h18.038l3.144-3.144v-11.915l-2.565-2.565H88.82z"/><path d="M200.85 452.954v9.93h-26.146v-9.93h5.71L177.6 442.53h-20.106l-2.647 10.425h5.626v9.93h-24.905v-9.93h4.716l12.66-45.837 5.46-5.461h19.692l5.461 5.378 12.99 45.92h4.303zm-25.567-19.113-5.709-21.264h-4.385l-5.46 21.264h15.554z" fill="#ff7f00"/><path stroke-width="4.384" fill="none" stroke="#000" d="M200.85 452.954v9.93h-26.146v-9.93h5.71L177.6 442.53h-20.106l-2.647 10.425h5.626v9.93h-24.905v-9.93h4.716l12.66-45.837 5.46-5.461h19.692l5.461 5.378 12.99 45.92h4.303zm-25.567-19.113-5.709-21.264h-4.385l-5.46 21.264h15.554z"/><path d="M258.602 404.552v16.713h-11.997v-10.177h-18.782v17.624h19.61v9.432h-19.61v14.81h7.198v9.93h-28.545v-9.93h5.626v-41.37h-5.626v-9.928h49.23l2.896 2.896z" fill="#ff7f00"/><path stroke-width="4.384" fill="none" stroke="#000" d="M258.602 404.552v16.713h-11.997v-10.177h-18.782v17.624h19.61v9.432h-19.61v14.81h7.198v9.93h-28.545v-9.93h5.626v-41.37h-5.626v-9.928h49.23l2.896 2.896z"/><path d="M318.257 404.552v16.713H306.26v-10.177h-18.782v17.624h19.61v9.432h-19.61v14.81h7.199v9.93H266.13v-9.93h5.627v-41.37h-5.627v-9.928h49.23l2.896 2.896z" fill="#ff7f00"/><path stroke-width="4.384" fill="none" stroke="#000" d="M318.257 404.552v16.713H306.26v-10.177h-18.782v17.624h19.61v9.432h-19.61v14.81h7.199v9.93H266.13v-9.93h5.627v-41.37h-5.627v-9.928h49.23l2.896 2.896z"/><path d="M347.05 411.584v41.37h5.544v9.93h-26.89v-9.93h5.626v-41.37h-5.626v-9.928h26.89v9.928h-5.543z" fill="#ff7f00"/><path stroke-width="4.384" fill="none" stroke="#000" d="M347.05 411.584v41.37h5.544v9.93h-26.89v-9.93h5.626v-41.37h-5.626v-9.928h26.89v9.928h-5.543z"/><path d="m415.89 454.61-8.274 8.273h-37.564l-8.274-8.274v-44.597l8.274-8.356h28.38l3.144 3.144 3.144-3.144h10.674v21.347h-13.818v-11.419h-21.512l-2.565 2.565v36.24l2.565 2.565h19.444l2.565-2.565v-12.08h13.817v16.3z" fill="#ff7f00"/><path stroke-width="4.384" fill="none" stroke="#000" d="m415.89 454.61-8.274 8.273h-37.564l-8.274-8.274v-44.597l8.274-8.356h28.38l3.144 3.144 3.144-3.144h10.674v21.347h-13.818v-11.419h-21.512l-2.565 2.565v36.24l2.565 2.565h19.444l2.565-2.565v-12.08h13.817v16.3z"/><path d="M521.549 452.954v9.93h-26.146v-9.93h5.71l-2.814-10.425h-20.106l-2.647 10.425h5.626v9.93h-24.905v-9.93h4.716l12.66-45.837 5.46-5.461h19.692l5.461 5.378 12.99 45.92h4.303zm-25.567-19.113-5.709-21.264h-4.385l-5.46 21.264h15.554z" fill="#ff7f00"/><path stroke-width="4.384" fill="none" stroke="#000" d="M521.549 452.954v9.93h-26.146v-9.93h5.71l-2.814-10.425h-20.106l-2.647 10.425h5.626v9.93h-24.905v-9.93h4.716l12.66-45.837 5.46-5.461h19.692l5.461 5.378 12.99 45.92h4.303zm-25.567-19.113-5.709-21.264h-4.385l-5.46 21.264h15.554z"/><path d="M597.338 411.584h-5.709v47.328l-4.385 3.971H571.69l-4.385-3.806-21.595-46.417h-.58v40.294h5.792v9.93h-23.746v-9.93h5.626v-41.37h-5.626v-9.928h26.477l3.31 2.647 21.677 46.583h.662v-39.302h-5.13v-9.928h23.167v9.928z" fill="#ff7f00"/><path stroke-width="4.384" fill="none" stroke="#000" d="M597.338 411.584h-5.709v47.328l-4.385 3.971H571.69l-4.385-3.806-21.595-46.417h-.58v40.294h5.792v9.93h-23.746v-9.93h5.626v-41.37h-5.626v-9.928h26.477l3.31 2.647 21.677 46.583h.662v-39.302h-5.13v-9.928h23.167v9.928z"/><path d="M664.688 409.93v44.68l-8.274 8.273h-53.036v-9.929h5.544v-41.37h-5.544v-9.928h53.036l8.274 8.274zm-15.72 4.22-2.565-2.566h-21.76v41.37h21.76l2.565-2.565v-36.24z" fill="#ff7f00"/><path stroke-width="4.384" fill="none" stroke="#000" d="M664.688 409.93v44.68l-8.274 8.273h-53.036v-9.929h5.544v-41.37h-5.544v-9.928h53.036l8.274 8.274zm-15.72 4.22-2.565-2.566h-21.76v41.37h21.76l2.565-2.565v-36.24z"/><path d="m766.375 425.237-6.453 6.453 6.453 6.454v16.465l-8.274 8.274h-50.636v-9.929h5.626v-41.37h-5.626v-9.928H758.1l8.274 8.274v15.307zm-15.72-11.584-2.648-2.565h-19.195v15.803h18.616l3.227-3.144v-10.094zm0 25.401-3.227-3.227h-18.616v17.624h19.195l2.648-2.565v-11.832z" fill="#ff7f00"/><path stroke-width="4.384" fill="none" stroke="#000" d="m766.375 425.237-6.453 6.453 6.453 6.454v16.465l-8.274 8.274h-50.636v-9.929h5.626v-41.37h-5.626v-9.928H758.1l8.274 8.274v15.307zm-15.72-11.584-2.648-2.565h-19.195v15.803h18.616l3.227-3.144v-10.094zm0 25.401-3.227-3.227h-18.616v17.624h19.195l2.648-2.565v-11.832z"/><path d="M838.855 452.954v9.93H812.71v-9.93h5.709l-2.813-10.425H795.5l-2.648 10.425h5.626v9.93h-24.904v-9.93h4.716l12.66-45.837 5.46-5.461h19.692l5.46 5.378 12.991 45.92h4.302zm-25.566-19.113-5.71-21.264h-4.384l-5.461 21.264h15.555z" fill="#ff7f00"/><path stroke-width="4.384" fill="none" stroke="#000" d="M838.855 452.954v9.93H812.71v-9.93h5.709l-2.813-10.425H795.5l-2.648 10.425h5.626v9.93h-24.904v-9.93h4.716l12.66-45.837 5.46-5.461h19.692l5.46 5.378 12.991 45.92h4.302zm-25.566-19.113-5.71-21.264h-4.384l-5.461 21.264h15.555z"/><path d="M902.73 409.93v18.037l-6.453 6.454 6.453 6.453v12.08h5.048v9.93h-16.466l-4.302-4.303v-16.217l-3.227-3.31H865.83v13.9h4.716v9.93h-26.063v-9.93h5.626v-41.37h-5.626v-9.928h49.975l8.273 8.274zm-36.901 1.654v17.624h18.037l3.144-3.144v-11.915l-2.565-2.565h-18.616z" fill="#ff7f00"/><path stroke-width="4.384" fill="none" stroke="#000" d="M902.73 409.93v18.037l-6.453 6.454 6.453 6.453v12.08h5.048v9.93h-16.466l-4.302-4.303v-16.217l-3.227-3.31H865.83v13.9h4.716v9.93h-26.063v-9.93h5.626v-41.37h-5.626v-9.928h49.975l8.273 8.274zm-36.901 1.654v17.624h18.037l3.144-3.144v-11.915l-2.565-2.565h-18.616z"/><path d="M972.81 409.93v18.037l-6.453 6.454 6.454 6.453v12.08h5.047v9.93h-16.465l-4.303-4.303v-16.217l-3.226-3.31h-17.955v13.9h4.716v9.93h-26.063v-9.93h5.627v-41.37h-5.627v-9.928h49.975l8.274 8.274zm-36.9 1.654v17.624h18.036l3.144-3.144v-11.915l-2.565-2.565H935.91z" fill="#ff7f00"/><path stroke-width="4.384" fill="none" stroke="#000" d="M972.81 409.93v18.037l-6.453 6.454 6.454 6.453v12.08h5.047v9.93h-16.465l-4.303-4.303v-16.217l-3.226-3.31h-17.955v13.9h4.716v9.93h-26.063v-9.93h5.627v-41.37h-5.627v-9.928h49.975l8.274 8.274zm-36.9 1.654v17.624h18.036l3.144-3.144v-11.915l-2.565-2.565H935.91z"/><path d="M1005.907 411.584v41.37h5.543v9.93h-26.89v-9.93h5.626v-41.37h-5.626v-9.928h26.89v9.928h-5.543z" fill="#ff7f00"/><path stroke-width="4.384" fill="none" stroke="#000" d="M1005.907 411.584v41.37h5.543v9.93h-26.89v-9.93h5.626v-41.37h-5.626v-9.928h26.89v9.928h-5.543z"/><path d="M1072.595 444.68v15.307l-2.896 2.896h-50.72v-9.929h5.627v-41.37h-5.626v-9.928h50.305l2.896 2.896v15.306h-11.997v-8.77h-19.858v15.472h20.686v9.433h-20.686v17.458h20.272v-8.77h11.997z" fill="#ff7f00"/><path stroke-width="4.384" fill="none" stroke="#000" d="M1072.595 444.68v15.307l-2.896 2.896h-50.72v-9.929h5.627v-41.37h-5.626v-9.928h50.305l2.896 2.896v15.306h-11.997v-8.77h-19.858v15.472h20.686v9.433h-20.686v17.458h20.272v-8.77h11.997z"/><path d="M1138.704 409.93v18.037l-6.454 6.454 6.454 6.453v12.08h5.047v9.93h-16.465l-4.303-4.303v-16.217l-3.226-3.31h-17.955v13.9h4.716v9.93h-26.063v-9.93h5.627v-41.37h-5.627v-9.928h49.975l8.274 8.274zm-36.902 1.654v17.624h18.037l3.144-3.144v-11.915l-2.564-2.565h-18.617z" fill="#ff7f00"/><path stroke-width="4.384" fill="none" stroke="#000" d="M1138.704 409.93v18.037l-6.454 6.454 6.454 6.453v12.08h5.047v9.93h-16.465l-4.303-4.303v-16.217l-3.226-3.31h-17.955v13.9h4.716v9.93h-26.063v-9.93h5.627v-41.37h-5.627v-9.928h49.975l8.274 8.274zm-36.902 1.654v17.624h18.037l3.144-3.144v-11.915l-2.564-2.565h-18.617z"/><path d="m225.506 559.624-8.274 8.274h-30.944l-2.565-2.648-2.73 2.648h-10.426v-16.465h13.156v7.115h24.242l2.152-2.15v-10.095l-2.565-2.648h-27.553l-8.273-8.274v-20.436l8.273-8.274h28.463l2.648 2.647 2.647-2.647h10.508v15.637H211.11v-6.288h-21.926l-2.069 2.151v9.267l2.565 2.648h27.552l8.274 8.274v21.264z" fill="#ff7f00"/><path stroke-width="4.384" fill="none" stroke="#000" d="m225.506 559.624-8.274 8.274h-30.944l-2.565-2.648-2.73 2.648h-10.426v-16.465h13.156v7.115h24.242l2.152-2.15v-10.095l-2.565-2.648h-27.553l-8.273-8.274v-20.436l8.273-8.274h28.463l2.648 2.647 2.647-2.647h10.508v15.637H211.11v-6.288h-21.926l-2.069 2.151v9.267l2.565 2.648h27.552l8.274 8.274v21.264z"/><path d="M292.194 514.945v44.679l-8.274 8.274h-40.128l-8.274-8.274v-44.68l8.274-8.273h40.128l8.274 8.274zm-38.39 1.654-2.566 2.565v36.24l2.565 2.565h20.106l2.565-2.565v-36.24l-2.565-2.565h-20.106z" fill="#ff7f00"/><path stroke-width="4.384" fill="none" stroke="#000" d="M292.194 514.945v44.679l-8.274 8.274h-40.128l-8.274-8.274v-44.68l8.274-8.273h40.128l8.274 8.274zm-38.39 1.654-2.566 2.565v36.24l2.565 2.565h20.106l2.565-2.565v-36.24l-2.565-2.565h-20.106z"/><path d="M355.656 545.062v19.94l-2.896 2.896h-51.381v-9.929h5.626V516.6h-5.626v-9.928h29.372v9.928h-8.026v41.37h18.865v-12.907h14.066z" fill="#ff7f00"/><path stroke-width="4.384" fill="none" stroke="#000" d="M355.656 545.062v19.94l-2.896 2.896h-51.381v-9.929h5.626V516.6h-5.626v-9.928h29.372v9.928h-8.026v41.37h18.865v-12.907h14.066z"/><path d="M426.895 516.6h-5.461v43.024l-8.274 8.274h-37.15l-8.274-8.274v-43.025h-5.544v-9.928h26.394v9.928h-5.13v38.805l2.565 2.565h19.196l2.565-2.565V516.6h-5.13v-9.928h24.243v9.928z" fill="#ff7f00"/><path stroke-width="4.384" fill="none" stroke="#000" d="M426.895 516.6h-5.461v43.024l-8.274 8.274h-37.15l-8.274-8.274v-43.025h-5.544v-9.928h26.394v9.928h-5.13v38.805l2.565 2.565h19.196l2.565-2.565V516.6h-5.13v-9.928h24.243v9.928z"/><path d="M491.432 509.567v20.27H480.51v-12.741h-10.59v40.873h8.19v9.929h-32.02v-9.929h8.109v-40.873h-10.674v12.742h-10.921v-20.271l2.896-2.896h53.036l2.896 2.896z" fill="#ff7f00"/><path stroke-width="4.384" fill="none" stroke="#000" d="M491.432 509.567v20.27H480.51v-12.741h-10.59v40.873h8.19v9.929h-32.02v-9.929h8.109v-40.873h-10.674v12.742h-10.921v-20.271l2.896-2.896h53.036l2.896 2.896z"/><path d="M519.15 516.6v41.37h5.543v9.928h-26.89v-9.929h5.626V516.6h-5.626v-9.928h26.89v9.928h-5.544z" fill="#ff7f00"/><path stroke-width="4.384" fill="none" stroke="#000" d="M519.15 516.6v41.37h5.543v9.928h-26.89v-9.929h5.626V516.6h-5.626v-9.928h26.89v9.928h-5.544z"/><path d="M590.554 514.945v44.679l-8.274 8.274H542.15l-8.274-8.274v-44.68l8.274-8.273h40.129l8.274 8.274zm-38.391 1.654-2.565 2.565v36.24l2.565 2.565h20.105l2.565-2.565v-36.24l-2.565-2.565h-20.106z" fill="#ff7f00"/><path stroke-width="4.384" fill="none" stroke="#000" d="M590.554 514.945v44.679l-8.274 8.274H542.15l-8.274-8.274v-44.68l8.274-8.273h40.129l8.274 8.274zm-38.391 1.654-2.565 2.565v36.24l2.565 2.565h20.105l2.565-2.565v-36.24l-2.565-2.565h-20.106z"/><path d="M669.901 516.6h-5.709v47.326l-4.385 3.972h-15.555l-4.385-3.806-21.596-46.417h-.579v40.294h5.792v9.929h-23.746v-9.929h5.626V516.6h-5.626v-9.928h26.476l3.31 2.647 21.678 46.583h.662v-39.302h-5.13v-9.928H669.9v9.928z" fill="#ff7f00"/><path stroke-width="4.384" fill="none" stroke="#000" d="M669.901 516.6h-5.709v47.326l-4.385 3.972h-15.555l-4.385-3.806-21.596-46.417h-.579v40.294h5.792v9.929h-23.746v-9.929h5.626V516.6h-5.626v-9.928h26.476l3.31 2.647 21.678 46.583h.662v-39.302h-5.13v-9.928H669.9v9.928z"/><path d="m732.287 559.624-8.274 8.274h-30.945l-2.565-2.648-2.73 2.648h-10.425v-16.465h13.155v7.115h24.243l2.151-2.15v-10.095l-2.565-2.648H686.78l-8.274-8.274v-20.436l8.274-8.274h28.462l2.648 2.647 2.648-2.647h10.508v15.637H717.89v-6.288h-21.926l-2.069 2.151v9.267l2.565 2.648h27.553l8.274 8.274v21.264z" fill="#ff7f00"/><path stroke-width="4.384" fill="none" stroke="#000" d="m732.287 559.624-8.274 8.274h-30.945l-2.565-2.648-2.73 2.648h-10.425v-16.465h13.155v7.115h24.243l2.151-2.15v-10.095l-2.565-2.648H686.78l-8.274-8.274v-20.436l8.274-8.274h28.462l2.648 2.647 2.648-2.647h10.508v15.637H717.89v-6.288h-21.926l-2.069 2.151v9.267l2.565 2.648h27.553l8.274 8.274v21.264z"/><path d="m754.544 567.898-1.655 9.432h-8.357l1.655-9.432-4.22-1.655V554.08h12.577v13.818z" fill="#ff7f00"/><path stroke-width="4.384" fill="none" stroke="#000" d="m754.544 567.898-1.655 9.432h-8.357l1.655-9.432-4.22-1.655V554.08h12.577v13.818z"/><path d="M851.266 545.062v19.94l-2.895 2.896h-51.382v-9.929h5.626V516.6h-5.626v-9.928h29.373v9.928h-8.026v41.37h18.865v-12.907h14.065z" fill="#ff7f00"/><path stroke-width="4.384" fill="none" stroke="#000" d="M851.266 545.062v19.94l-2.895 2.896h-51.382v-9.929h5.626V516.6h-5.626v-9.928h29.373v9.928h-8.026v41.37h18.865v-12.907h14.065z"/><path d="M912.907 545.062v19.94l-2.895 2.896H858.63v-9.929h5.626V516.6h-5.626v-9.928h29.373v9.928h-8.026v41.37h18.865v-12.907h14.065z" fill="#ff7f00"/><path stroke-width="4.384" fill="none" stroke="#000" d="M912.907 545.062v19.94l-2.895 2.896H858.63v-9.929h5.626V516.6h-5.626v-9.928h29.373v9.928h-8.026v41.37h18.865v-12.907h14.065z"/><path d="m975.955 559.624-8.274 8.274h-37.564l-8.274-8.274v-44.597l8.274-8.356h28.38l3.144 3.144 3.144-3.144h10.674v21.346H961.64V516.6H940.13l-2.565 2.565v36.24l2.565 2.565h19.444l2.565-2.565v-12.08h13.817v16.3z" fill="#ff7f00"/><path stroke-width="4.384" fill="none" stroke="#000" d="m975.955 559.624-8.274 8.274h-37.564l-8.274-8.274v-44.597l8.274-8.356h28.38l3.144 3.144 3.144-3.144h10.674v21.346H961.64V516.6H940.13l-2.565 2.565v36.24l2.565 2.565h19.444l2.565-2.565v-12.08h13.817v16.3z"/></g></svg>