<svg xmlns="http://www.w3.org/2000/svg" width="3190.629" height="473.509" viewBox="0 0 2392.972 355.132"><g data-name="Layer"><path d="M19.154 97.822 76.902 142.6s3.239-8.318 5.9-14.037c9.954-21.389 30.685-40.39 51.055-49.849 16.292-7.566 32.167-10.664 50.004-9.648 19.517 1.112 39.693 7.338 55.722 20.502 3.13 2.57 7.076 6.03 7.076 6.03l49.637-49.315s-11.804-10.186-19.193-15.675c-11.36-8.44-30.074-17.381-42.344-21.44-45.543-15.065-93.262-11.264-135.474 9.246C68.323 33.457 41.102 58.69 23.842 89.3a616.713 616.713 0 0 0-4.688 8.522z" fill="#e43e2b" fill-rule="evenodd"/><path d="m240.327 268.382 54.547 44.499c26.79-24.402 43.382-57.264 50.168-94.538 3.079-16.914 4.398-39.495 2.01-58.156-.826-6.454-2.318-15.545-2.318-15.545l-166.523.269v68.34h97.167s-.842 4.252-1.625 7.504c-4.74 19.695-17.424 36.331-33.426 47.627z" fill="#3b7ded" fill-rule="evenodd"/><path d="m294.874 312.88-54.547-44.498c-5.944 4.196-12.345 7.656-18.968 10.261-28.694 11.29-61.69 10.577-88.44-2.278-18.716-8.994-31.77-21.225-43.952-38.726-1.693-2.431-3.085-4.562-4.824-8.04-3.125-6.245-7.371-16.834-7.371-16.834l-57.486 44.84s4.47 8.152 8.174 14.338c1.817 3.032 12.61 17.812 14.874 20.368 23.387 26.395 49.84 45.328 86.029 55.878 42.9 12.507 94.884 8.08 134.67-12.998 11.87-6.288 22.478-13.782 31.84-22.31z" fill="#2ba24c" fill-rule="evenodd"/><path d="m76.947 142.64-2.782 9.913-1.705 8.52-1.065 12.143v7.882l.852 12.995 2.13 9.373 2.383 9.3-57.468 44.844-6.7-14.637-4.197-11.753-4.197-14.271-2.939-16.79L0 186.727v-16.58l2.309-20.778 3.568-17.63 6.086-18.47 7.14-15.584 57.844 44.955z" fill="#f0b501" fill-rule="evenodd"/><path d="m619.863 143.641 141.274-6.888-119.358 79.565 49.902 138.786-109.033-94.468L472.215 353.3l51.971-137.949-118.153-81.517 141.154 9.21L584.597 0l35.266 143.641zM1024.69 143.641l141.274-6.888-119.358 79.565 49.903 138.786-109.034-94.468L877.042 353.3l51.971-137.949-118.153-81.517 141.154 9.21L989.424 0l35.266 143.641zM1434.424 143.641l141.274-6.888-119.358 79.565 49.903 138.786-109.034-94.468-110.433 92.663 51.972-137.949-118.154-81.517 141.154 9.21L1399.158 0l35.266 143.641zM1840.96 143.641l141.274-6.888-119.357 79.565 49.902 138.786-109.034-94.468-110.433 92.663 51.972-137.949-118.154-81.517 141.154 9.21L1805.694 0l35.266 143.641zM2251.698 143.641l141.274-6.888-119.358 79.565 49.902 138.786-109.034-94.468L2104.05 353.3l51.97-137.949-118.153-81.517 141.154 9.21L2216.431 0l35.267 143.641z" fill="#efc131"/></g></svg>